<svg width="98" height="100" viewBox="0 0 98 100" fill="none" xmlns="http://www.w3.org/2000/svg">
<g clip-path="url(#clip0_37_958)">
<path d="M6.05531 5.21969C6.05531 5.62156 6.37455 5.94727 6.76835 5.94727C7.16215 5.94727 7.4814 5.62156 7.4814 5.21969C7.4814 4.81781 7.16215 4.4921 6.76835 4.4921C6.37455 4.4921 6.05531 4.81781 6.05531 5.21969ZM5.97611 5.21969C5.97611 4.77319 6.33081 4.41125 6.76835 4.41125C7.20589 4.41125 7.56059 4.77319 7.56059 5.21969C7.56059 5.66618 7.20589 6.02812 6.76835 6.02812C6.33081 6.02812 5.97611 5.66618 5.97611 5.21969Z" fill="black"/>
<path d="M5.77013 14.9834C5.77013 15.546 6.21704 16.002 6.76835 16.002C7.31966 16.002 7.76657 15.546 7.76657 14.9834C7.76657 14.4208 7.31966 13.9647 6.76835 13.9647C6.21704 13.9647 5.77013 14.4208 5.77013 14.9834ZM5.65919 14.9834C5.65919 14.3583 6.15578 13.8516 6.76835 13.8516C7.38093 13.8516 7.87751 14.3583 7.87751 14.9834C7.87751 15.6085 7.38093 16.1152 6.76835 16.1152C6.15578 16.1152 5.65919 15.6085 5.65919 14.9834Z" fill="black"/>
<path d="M5.48487 24.7471C5.48487 25.4704 6.0595 26.0568 6.76835 26.0568C7.4772 26.0568 8.05184 25.4704 8.05184 24.7471C8.05184 24.0238 7.4772 23.4374 6.76835 23.4374C6.0595 23.4374 5.48487 24.0238 5.48487 24.7471ZM5.34228 24.7471C5.34228 23.9435 5.98075 23.2919 6.76835 23.2919C7.55596 23.2919 8.19443 23.9435 8.19443 24.7471C8.19443 25.5508 7.55596 26.2023 6.76835 26.2023C5.98075 26.2023 5.34228 25.5508 5.34228 24.7471Z" fill="black"/>
<path d="M5.19965 34.5108C5.19965 35.3948 5.90199 36.1116 6.76835 36.1116C7.63471 36.1116 8.33706 35.3948 8.33706 34.5108C8.33706 33.6268 7.63471 32.9101 6.76835 32.9101C5.90199 32.9101 5.19965 33.6268 5.19965 34.5108ZM5.0254 34.5108C5.0254 33.5285 5.80572 32.7323 6.76835 32.7323C7.73099 32.7323 8.51131 33.5285 8.51131 34.5108C8.51131 35.4932 7.73099 36.2894 6.76835 36.2894C5.80572 36.2894 5.0254 35.4932 5.0254 34.5108Z" fill="black"/>
<path d="M4.91446 44.2746C4.91446 45.3193 5.74445 46.1663 6.76835 46.1663C7.79226 46.1663 8.62225 45.3193 8.62225 44.2746C8.62225 43.2298 7.79226 42.3828 6.76835 42.3828C5.74445 42.3828 4.91446 43.2298 4.91446 44.2746ZM4.70848 44.2746C4.70848 43.1137 5.63071 42.1726 6.76835 42.1726C7.906 42.1726 8.82823 43.1137 8.82823 44.2746C8.82823 45.4355 7.906 46.3765 6.76835 46.3765C5.63071 46.3765 4.70848 45.4355 4.70848 44.2746Z" fill="black"/>
<path d="M4.62923 54.0383C4.62923 55.2438 5.58694 56.2211 6.76835 56.2211C7.94976 56.2211 8.90747 55.2438 8.90747 54.0383C8.90747 52.8328 7.94976 51.8555 6.76835 51.8555C5.58694 51.8555 4.62923 52.8328 4.62923 54.0383ZM4.39156 54.0383C4.39156 52.6988 5.45568 51.613 6.76835 51.613C8.08103 51.613 9.14515 52.6988 9.14515 54.0383C9.14515 55.3778 8.08103 56.4636 6.76835 56.4636C5.45568 56.4636 4.39156 55.3778 4.39156 54.0383Z" fill="black"/>
<path d="M4.34401 63.802C4.34401 65.1682 5.4294 66.2758 6.76835 66.2758C8.10731 66.2758 9.19269 65.1682 9.19269 63.802C9.19269 62.4358 8.10731 61.3282 6.76835 61.3282C5.4294 61.3282 4.34401 62.4358 4.34401 63.802ZM4.07463 63.802C4.07463 62.2839 5.28064 61.0533 6.76835 61.0533C8.25606 61.0533 9.46207 62.2839 9.46207 63.802C9.46207 65.3201 8.25606 66.5507 6.76835 66.5507C5.28064 66.5507 4.07463 65.3201 4.07463 63.802Z" fill="black"/>
<path d="M4.05879 73.5657C4.05879 75.0928 5.27193 76.3305 6.76835 76.3305C8.26478 76.3305 9.47792 75.0928 9.47792 73.5657C9.47792 72.0387 8.26478 70.8009 6.76835 70.8009C5.27193 70.8009 4.05879 72.0387 4.05879 73.5657ZM3.75772 73.5657C3.75772 71.8691 5.10564 70.4937 6.76835 70.4937C8.43107 70.4937 9.77899 71.8691 9.77899 73.5657C9.77899 75.2624 8.43107 76.6378 6.76835 76.6378C5.10564 76.6378 3.75772 75.2624 3.75772 73.5657Z" fill="black"/>
<path d="M3.77357 83.3294C3.77357 85.0171 5.11439 86.3854 6.76835 86.3854C8.42231 86.3854 9.76313 85.0171 9.76313 83.3294C9.76313 81.6418 8.42231 80.2735 6.76835 80.2735C5.11439 80.2735 3.77357 81.6418 3.77357 83.3294ZM3.44084 83.3294C3.44084 81.4542 4.93061 79.934 6.76835 79.934C8.6061 79.934 10.0959 81.4542 10.0959 83.3294C10.0959 85.2047 8.6061 86.7249 6.76835 86.7249C4.93061 86.7249 3.44084 85.2047 3.44084 83.3294Z" fill="black"/>
<path d="M3.48834 93.0932C3.48834 94.9416 4.95688 96.4401 6.76835 96.4401C8.57982 96.4401 10.0484 94.9416 10.0484 93.0932C10.0484 91.2447 8.57982 89.7463 6.76835 89.7463C4.95688 89.7463 3.48834 91.2447 3.48834 93.0932ZM3.12392 93.0932C3.12392 91.0393 4.75557 89.3744 6.76835 89.3744C8.78113 89.3744 10.4128 91.0393 10.4128 93.0932C10.4128 95.1469 8.78113 96.812 6.76835 96.812C4.75557 96.812 3.12392 95.1469 3.12392 93.0932Z" fill="black"/>
<path d="M15.6858 5.21968C15.6858 5.5866 15.9773 5.88401 16.3368 5.88401C16.6964 5.88401 16.9879 5.5866 16.9879 5.21968C16.9879 4.85276 16.6964 4.55536 16.3368 4.55536C15.9773 4.55536 15.6858 4.85276 15.6858 5.21968ZM15.6135 5.21968C15.6135 4.81205 15.9374 4.48155 16.3368 4.48155C16.7363 4.48155 17.0602 4.81205 17.0602 5.21968C17.0602 5.62732 16.7363 5.95781 16.3368 5.95781C15.9374 5.95781 15.6135 5.62732 15.6135 5.21968Z" fill="black"/>
<path d="M15.4254 14.9834C15.4254 15.4971 15.8334 15.9134 16.3368 15.9134C16.8402 15.9134 17.2482 15.4971 17.2482 14.9834C17.2482 14.4697 16.8402 14.0534 16.3368 14.0534C15.8334 14.0534 15.4254 14.4697 15.4254 14.9834ZM15.3241 14.9834C15.3241 14.4127 15.7776 13.95 16.3368 13.95C16.8961 13.95 17.3496 14.4127 17.3496 14.9834C17.3496 15.5541 16.8961 16.0168 16.3368 16.0168C15.7776 16.0168 15.3241 15.5541 15.3241 14.9834Z" fill="black"/>
<path d="M15.165 24.7471C15.165 25.4075 15.6896 25.9429 16.3368 25.9429C16.984 25.9429 17.5087 25.4075 17.5087 24.7471C17.5087 24.0867 16.984 23.5514 16.3368 23.5514C15.6896 23.5514 15.165 24.0867 15.165 24.7471ZM15.0348 24.7471C15.0348 24.0133 15.6177 23.4185 16.3368 23.4185C17.056 23.4185 17.6389 24.0133 17.6389 24.7471C17.6389 25.481 17.056 26.0758 16.3368 26.0758C15.6177 26.0758 15.0348 25.481 15.0348 24.7471Z" fill="black"/>
<path d="M14.9045 34.5108C14.9045 35.318 15.5458 35.9724 16.3368 35.9724C17.1279 35.9724 17.7691 35.318 17.7691 34.5108C17.7691 33.7037 17.1279 33.0493 16.3368 33.0493C15.5458 33.0493 14.9045 33.7037 14.9045 34.5108ZM14.7454 34.5108C14.7454 33.6139 15.4579 32.8869 16.3368 32.8869C17.2158 32.8869 17.9283 33.6139 17.9283 34.5108C17.9283 35.4077 17.2158 36.1347 16.3368 36.1347C15.4579 36.1347 14.7454 35.4077 14.7454 34.5108Z" fill="black"/>
<path d="M14.6442 44.2746C14.6442 45.2286 15.402 46.0018 16.3368 46.0018C17.2717 46.0018 18.0295 45.2286 18.0295 44.2746C18.0295 43.3205 17.2717 42.5474 16.3368 42.5474C15.402 42.5474 14.6442 43.3205 14.6442 44.2746ZM14.4561 44.2746C14.4561 43.2147 15.2982 42.3554 16.3368 42.3554C17.3755 42.3554 18.2176 43.2147 18.2176 44.2746C18.2176 45.3344 17.3755 46.1937 16.3368 46.1937C15.2982 46.1937 14.4561 45.3344 14.4561 44.2746Z" fill="black"/>
<path d="M14.3837 54.0383C14.3837 55.139 15.2582 56.0313 16.3368 56.0313C17.4155 56.0313 18.29 55.139 18.29 54.0383C18.29 52.9376 17.4155 52.0453 16.3368 52.0453C15.2582 52.0453 14.3837 52.9376 14.3837 54.0383ZM14.1667 54.0383C14.1667 52.8154 15.1383 51.8239 16.3368 51.8239C17.5354 51.8239 18.507 52.8154 18.507 54.0383C18.507 55.2612 17.5354 56.2527 16.3368 56.2527C15.1383 56.2527 14.1667 55.2612 14.1667 54.0383Z" fill="black"/>
<path d="M14.1233 63.802C14.1233 65.0494 15.1144 66.0607 16.3368 66.0607C17.5593 66.0607 18.5504 65.0494 18.5504 63.802C18.5504 62.5546 17.5593 61.5433 16.3368 61.5433C15.1144 61.5433 14.1233 62.5546 14.1233 63.802ZM13.8774 63.802C13.8774 62.4159 14.9785 61.2923 16.3368 61.2923C17.6952 61.2923 18.7963 62.4159 18.7963 63.802C18.7963 65.1881 17.6952 66.3117 16.3368 66.3117C14.9785 66.3117 13.8774 65.1881 13.8774 63.802Z" fill="black"/>
<path d="M13.8629 73.5657C13.8629 74.9599 14.9705 76.0901 16.3368 76.0901C17.7031 76.0901 18.8108 74.9599 18.8108 73.5657C18.8108 72.1716 17.7031 71.0413 16.3368 71.0413C14.9705 71.0413 13.8629 72.1716 13.8629 73.5657ZM13.588 73.5657C13.588 72.0166 14.8187 70.7608 16.3368 70.7608C17.855 70.7608 19.0857 72.0166 19.0857 73.5657C19.0857 75.1148 17.855 76.3706 16.3368 76.3706C14.8187 76.3706 13.588 75.1148 13.588 73.5657Z" fill="black"/>
<path d="M13.6024 83.3294C13.6024 84.8704 14.8266 86.1196 16.3368 86.1196C17.847 86.1196 19.0712 84.8704 19.0712 83.3294C19.0712 81.7885 17.847 80.5393 16.3368 80.5393C14.8266 80.5393 13.6024 81.7885 13.6024 83.3294ZM13.2986 83.3294C13.2986 81.6173 14.6589 80.2293 16.3368 80.2293C18.0148 80.2293 19.375 81.6173 19.375 83.3294C19.375 85.0416 18.0148 86.4296 16.3368 86.4296C14.6589 86.4296 13.2986 85.0416 13.2986 83.3294Z" fill="black"/>
<path d="M13.3421 93.0932C13.3421 94.7808 14.6828 96.1491 16.3368 96.1491C17.9908 96.1491 19.3316 94.7808 19.3316 93.0932C19.3316 91.4055 17.9908 90.0372 16.3368 90.0372C14.6828 90.0372 13.3421 91.4055 13.3421 93.0932ZM13.0093 93.0932C13.0093 91.218 14.4991 89.6977 16.3368 89.6977C18.1746 89.6977 19.6644 91.218 19.6644 93.0932C19.6644 94.9684 18.1746 96.4886 16.3368 96.4886C14.4991 96.4886 13.0093 94.9684 13.0093 93.0932Z" fill="black"/>
<path d="M25.3163 5.21968C25.3163 5.55165 25.58 5.82073 25.9053 5.82073C26.2306 5.82073 26.4944 5.55165 26.4944 5.21968C26.4944 4.88772 26.2306 4.61863 25.9053 4.61863C25.58 4.61863 25.3163 4.88772 25.3163 5.21968ZM25.2508 5.21968C25.2508 4.85081 25.5438 4.55184 25.9053 4.55184C26.2668 4.55184 26.5598 4.85081 26.5598 5.21968C26.5598 5.58856 26.2668 5.88752 25.9053 5.88752C25.5438 5.88752 25.2508 5.58856 25.2508 5.21968Z" fill="black"/>
<path d="M25.0807 14.9834C25.0807 15.4482 25.4499 15.8248 25.9053 15.8248C26.3608 15.8248 26.7299 15.4482 26.7299 14.9834C26.7299 14.5186 26.3608 14.142 25.9053 14.142C25.4499 14.142 25.0807 14.5186 25.0807 14.9834ZM24.989 14.9834C24.989 14.467 25.3992 14.0484 25.9053 14.0484C26.4114 14.0484 26.8216 14.467 26.8216 14.9834C26.8216 15.4998 26.4114 15.9184 25.9053 15.9184C25.3992 15.9184 24.989 15.4998 24.989 14.9834Z" fill="black"/>
<path d="M24.845 24.7471C24.845 25.3447 25.3197 25.829 25.9053 25.829C26.4909 25.829 26.9656 25.3447 26.9656 24.7471C26.9656 24.1496 26.4909 23.6652 25.9053 23.6652C25.3197 23.6652 24.845 24.1496 24.845 24.7471ZM24.7272 24.7471C24.7272 24.0832 25.2547 23.545 25.9053 23.545C26.556 23.545 27.0834 24.0832 27.0834 24.7471C27.0834 25.411 26.556 25.9492 25.9053 25.9492C25.2547 25.9492 24.7272 25.411 24.7272 24.7471Z" fill="black"/>
<path d="M24.6095 34.5108C24.6095 35.2411 25.1897 35.8331 25.9053 35.8331C26.6209 35.8331 27.2012 35.2411 27.2012 34.5108C27.2012 33.7806 26.6209 33.1885 25.9053 33.1885C25.1897 33.1885 24.6095 33.7806 24.6095 34.5108ZM24.4655 34.5108C24.4655 33.6994 25.1101 33.0416 25.9053 33.0416C26.7006 33.0416 27.3452 33.6994 27.3452 34.5108C27.3452 35.3223 26.7006 35.9801 25.9053 35.9801C25.1101 35.9801 24.4655 35.3223 24.4655 34.5108Z" fill="black"/>
<path d="M24.3739 44.2746C24.3739 45.1377 25.0595 45.8373 25.9053 45.8373C26.7512 45.8373 27.4368 45.1377 27.4368 44.2746C27.4368 43.4114 26.7512 42.7118 25.9053 42.7118C25.0595 42.7118 24.3739 43.4114 24.3739 44.2746ZM24.2037 44.2746C24.2037 43.3156 24.9655 42.5382 25.9053 42.5382C26.8451 42.5382 27.607 43.3156 27.607 44.2746C27.607 45.2336 26.8451 46.0109 25.9053 46.0109C24.9655 46.0109 24.2037 45.2336 24.2037 44.2746Z" fill="black"/>
<path d="M24.1382 54.0383C24.1382 55.0341 24.9293 55.8414 25.9053 55.8414C26.8813 55.8414 27.6724 55.0341 27.6724 54.0383C27.6724 53.0425 26.8813 52.2351 25.9053 52.2351C24.9293 52.2351 24.1382 53.0425 24.1382 54.0383ZM23.9419 54.0383C23.9419 52.9318 24.8209 52.0348 25.9053 52.0348C26.9897 52.0348 27.8688 52.9318 27.8688 54.0383C27.8688 55.1448 26.9897 56.0418 25.9053 56.0418C24.8209 56.0418 23.9419 55.1448 23.9419 54.0383Z" fill="black"/>
<path d="M23.9026 63.802C23.9026 64.9307 24.7992 65.8456 25.9053 65.8456C27.0114 65.8456 27.908 64.9307 27.908 63.802C27.908 62.6733 27.0114 61.7584 25.9053 61.7584C24.7992 61.7584 23.9026 62.6733 23.9026 63.802ZM23.6801 63.802C23.6801 62.548 24.6763 61.5314 25.9053 61.5314C27.1343 61.5314 28.1306 62.548 28.1306 63.802C28.1306 65.0561 27.1343 66.0727 25.9053 66.0727C24.6763 66.0727 23.6801 65.0561 23.6801 63.802Z" fill="black"/>
<path d="M23.667 73.5657C23.667 74.8272 24.6692 75.8498 25.9053 75.8498C27.1415 75.8498 28.1437 74.8272 28.1437 73.5657C28.1437 72.3043 27.1415 71.2817 25.9053 71.2817C24.6692 71.2817 23.667 72.3043 23.667 73.5657ZM23.4183 73.5657C23.4183 72.1641 24.5318 71.0279 25.9053 71.0279C27.2789 71.0279 28.3924 72.1641 28.3924 73.5657C28.3924 74.9673 27.2789 76.1035 25.9053 76.1035C24.5318 76.1035 23.4183 74.9673 23.4183 73.5657Z" fill="black"/>
<path d="M23.4314 83.3295C23.4314 84.7236 24.539 85.8539 25.9053 85.8539C27.2716 85.8539 28.3792 84.7236 28.3792 83.3295C28.3792 81.9353 27.2716 80.805 25.9053 80.805C24.539 80.805 23.4314 81.9353 23.4314 83.3295ZM23.1565 83.3295C23.1565 81.7803 24.3872 80.5245 25.9053 80.5245C27.4235 80.5245 28.6542 81.7803 28.6542 83.3295C28.6542 84.8786 27.4235 86.1344 25.9053 86.1344C24.3872 86.1344 23.1565 84.8786 23.1565 83.3295Z" fill="black"/>
<path d="M23.1958 93.0932C23.1958 94.6202 24.4089 95.8579 25.9053 95.8579C27.4017 95.8579 28.6148 94.6202 28.6148 93.0932C28.6148 91.5661 27.4017 90.3284 25.9053 90.3284C24.4089 90.3284 23.1958 91.5661 23.1958 93.0932ZM22.8947 93.0932C22.8947 91.3965 24.2426 90.0211 25.9053 90.0211C27.568 90.0211 28.9159 91.3965 28.9159 93.0932C28.9159 94.7898 27.568 96.1652 25.9053 96.1652C24.2426 96.1652 22.8947 94.7898 22.8947 93.0932Z" fill="black"/>
<path d="M34.9468 5.21968C34.9468 5.51669 35.1827 5.75746 35.4738 5.75746C35.7649 5.75746 36.0008 5.51669 36.0008 5.21968C36.0008 4.92267 35.7649 4.68189 35.4738 4.68189C35.1827 4.68189 34.9468 4.92267 34.9468 5.21968ZM34.8882 5.21968C34.8882 4.88966 35.1504 4.62214 35.4738 4.62214C35.7972 4.62214 36.0594 4.88966 36.0594 5.21968C36.0594 5.54969 35.7972 5.81722 35.4738 5.81722C35.1504 5.81722 34.8882 5.54969 34.8882 5.21968Z" fill="black"/>
<path d="M34.736 14.9834C34.736 15.3992 35.0663 15.7363 35.4738 15.7363C35.8813 15.7363 36.2116 15.3992 36.2116 14.9834C36.2116 14.5676 35.8813 14.2305 35.4738 14.2305C35.0663 14.2305 34.736 14.5676 34.736 14.9834ZM34.654 14.9834C34.654 14.5214 35.021 14.1468 35.4738 14.1468C35.9266 14.1468 36.2936 14.5214 36.2936 14.9834C36.2936 15.4454 35.9266 15.82 35.4738 15.82C35.021 15.82 34.654 15.4454 34.654 14.9834Z" fill="black"/>
<path d="M34.5252 24.7471C34.5252 25.2818 34.9498 25.7152 35.4738 25.7152C35.9978 25.7152 36.4224 25.2818 36.4224 24.7471C36.4224 24.2125 35.9978 23.779 35.4738 23.779C34.9498 23.779 34.5252 24.2125 34.5252 24.7471ZM34.4197 24.7471C34.4197 24.1531 34.8917 23.6715 35.4738 23.6715C36.0559 23.6715 36.5279 24.1531 36.5279 24.7471C36.5279 25.3411 36.0559 25.8227 35.4738 25.8227C34.8917 25.8227 34.4197 25.3411 34.4197 24.7471Z" fill="black"/>
<path d="M34.3144 34.5108C34.3144 35.1642 34.8335 35.694 35.4738 35.694C36.1141 35.694 36.6332 35.1642 36.6332 34.5108C36.6332 33.8575 36.1141 33.3277 35.4738 33.3277C34.8335 33.3277 34.3144 33.8575 34.3144 34.5108ZM34.1855 34.5108C34.1855 33.7848 34.7623 33.1963 35.4738 33.1963C36.1853 33.1963 36.7621 33.7848 36.7621 34.5108C36.7621 35.2369 36.1853 35.8254 35.4738 35.8254C34.7623 35.8254 34.1855 35.2369 34.1855 34.5108Z" fill="black"/>
<path d="M34.1036 44.2746C34.1036 45.0468 34.717 45.6727 35.4738 45.6727C36.2306 45.6727 36.844 45.0468 36.844 44.2746C36.844 43.5023 36.2306 42.8764 35.4738 42.8764C34.717 42.8764 34.1036 43.5023 34.1036 44.2746ZM33.9513 44.2746C33.9513 43.4165 34.6329 42.721 35.4738 42.721C36.3147 42.721 36.9963 43.4165 36.9963 44.2746C36.9963 45.1326 36.3147 45.8282 35.4738 45.8282C34.6329 45.8282 33.9513 45.1326 33.9513 44.2746Z" fill="black"/>
<path d="M33.8927 54.0383C33.8927 54.9293 34.6006 55.6516 35.4738 55.6516C36.347 55.6516 37.0549 54.9293 37.0549 54.0383C37.0549 53.1472 36.347 52.4249 35.4738 52.4249C34.6006 52.4249 33.8927 53.1472 33.8927 54.0383ZM33.717 54.0383C33.717 53.0482 34.5036 52.2457 35.4738 52.2457C36.444 52.2457 37.2306 53.0482 37.2306 54.0383C37.2306 55.0283 36.444 55.8309 35.4738 55.8309C34.5036 55.8309 33.717 55.0283 33.717 54.0383Z" fill="black"/>
<path d="M33.6818 63.802C33.6818 64.8119 34.4841 65.6306 35.4738 65.6306C36.4635 65.6306 37.2658 64.8119 37.2658 63.802C37.2658 62.7921 36.4635 61.9735 35.4738 61.9735C34.4841 61.9735 33.6818 62.7921 33.6818 63.802ZM33.4828 63.802C33.4828 62.68 34.3742 61.7704 35.4738 61.7704C36.5734 61.7704 37.4648 62.68 37.4648 63.802C37.4648 64.9241 36.5734 65.8336 35.4738 65.8336C34.3742 65.8336 33.4828 64.9241 33.4828 63.802Z" fill="black"/>
<path d="M33.471 73.5657C33.471 74.6944 34.3677 75.6094 35.4738 75.6094C36.5799 75.6094 37.4766 74.6944 37.4766 73.5657C37.4766 72.437 36.5799 71.5221 35.4738 71.5221C34.3677 71.5221 33.471 72.437 33.471 73.5657ZM33.2486 73.5657C33.2486 72.3117 34.2448 71.2951 35.4738 71.2951C36.7028 71.2951 37.699 72.3117 37.699 73.5657C37.699 74.8198 36.7028 75.8364 35.4738 75.8364C34.2448 75.8364 33.2486 74.8198 33.2486 73.5657Z" fill="black"/>
<path d="M33.2602 83.3294C33.2602 84.5769 34.2513 85.5882 35.4738 85.5882C36.6963 85.5882 37.6874 84.5769 37.6874 83.3294C37.6874 82.082 36.6963 81.0707 35.4738 81.0707C34.2513 81.0707 33.2602 82.082 33.2602 83.3294ZM33.0143 83.3294C33.0143 81.9434 34.1155 80.8198 35.4738 80.8198C36.8321 80.8198 37.9333 81.9434 37.9333 83.3294C37.9333 84.7155 36.8321 85.8391 35.4738 85.8391C34.1155 85.8391 33.0143 84.7155 33.0143 83.3294Z" fill="black"/>
<path d="M33.0494 93.0932C33.0494 94.4594 34.1349 95.567 35.4738 95.567C36.8127 95.567 37.8982 94.4594 37.8982 93.0932C37.8982 91.7269 36.8127 90.6193 35.4738 90.6193C34.1349 90.6193 33.0494 91.7269 33.0494 93.0932ZM32.7801 93.0932C32.7801 91.5751 33.9861 90.3445 35.4738 90.3445C36.9615 90.3445 38.1675 91.5751 38.1675 93.0932C38.1675 94.6112 36.9615 95.8419 35.4738 95.8419C33.9861 95.8419 32.7801 94.6112 32.7801 93.0932Z" fill="black"/>
<path d="M44.5773 5.21968C44.5773 5.48174 44.7854 5.69419 45.0423 5.69419C45.2992 5.69419 45.5073 5.48174 45.5073 5.21968C45.5073 4.95762 45.2992 4.74517 45.0423 4.74517C44.7854 4.74517 44.5773 4.95762 44.5773 5.21968ZM44.5256 5.21968C44.5256 4.92853 44.757 4.69244 45.0423 4.69244C45.3276 4.69244 45.559 4.92853 45.559 5.21968C45.559 5.51084 45.3276 5.74692 45.0423 5.74692C44.757 5.74692 44.5256 5.51084 44.5256 5.21968Z" fill="black"/>
<path d="M44.3912 14.9834C44.3912 15.3503 44.6827 15.6477 45.0423 15.6477C45.4019 15.6477 45.6933 15.3503 45.6933 14.9834C45.6933 14.6165 45.4019 14.3191 45.0423 14.3191C44.6827 14.3191 44.3912 14.6165 44.3912 14.9834ZM44.3189 14.9834C44.3189 14.5758 44.6428 14.2453 45.0423 14.2453C45.4418 14.2453 45.7657 14.5758 45.7657 14.9834C45.7657 15.391 45.4418 15.7215 45.0423 15.7215C44.6428 15.7215 44.3189 15.391 44.3189 14.9834Z" fill="black"/>
<path d="M44.2052 24.7471C44.2052 25.2189 44.58 25.6012 45.0423 25.6012C45.5045 25.6012 45.8793 25.2189 45.8793 24.7471C45.8793 24.2753 45.5045 23.893 45.0423 23.893C44.58 23.893 44.2052 24.2753 44.2052 24.7471ZM44.1122 24.7471C44.1122 24.223 44.5286 23.7981 45.0423 23.7981C45.5559 23.7981 45.9723 24.223 45.9723 24.7471C45.9723 25.2712 45.5559 25.6962 45.0423 25.6962C44.5286 25.6962 44.1122 25.2712 44.1122 24.7471Z" fill="black"/>
<path d="M44.0192 34.5108C44.0192 35.0874 44.4773 35.5548 45.0423 35.5548C45.6073 35.5548 46.0653 35.0874 46.0653 34.5108C46.0653 33.9343 45.6073 33.4669 45.0423 33.4669C44.4773 33.4669 44.0192 33.9343 44.0192 34.5108ZM43.9056 34.5108C43.9056 33.8702 44.4144 33.3509 45.0423 33.3509C45.6702 33.3509 46.179 33.8702 46.179 34.5108C46.179 35.1514 45.6702 35.6708 45.0423 35.6708C44.4144 35.6708 43.9056 35.1514 43.9056 34.5108Z" fill="black"/>
<path d="M43.8332 44.2746C43.8332 44.956 44.3745 45.5083 45.0423 45.5083C45.7101 45.5083 46.2514 44.956 46.2514 44.2746C46.2514 43.5932 45.7101 43.0408 45.0423 43.0408C44.3745 43.0408 43.8332 43.5932 43.8332 44.2746ZM43.6989 44.2746C43.6989 43.5175 44.3003 42.9037 45.0423 42.9037C45.7842 42.9037 46.3857 43.5175 46.3857 44.2746C46.3857 45.0316 45.7842 45.6454 45.0423 45.6454C44.3003 45.6454 43.6989 45.0316 43.6989 44.2746Z" fill="black"/>
<path d="M43.6472 54.0383C43.6472 54.8246 44.2717 55.4618 45.0423 55.4618C45.8128 55.4618 46.4374 54.8246 46.4374 54.0383C46.4374 53.252 45.8128 52.6147 45.0423 52.6147C44.2717 52.6147 43.6472 53.252 43.6472 54.0383ZM43.4922 54.0383C43.4922 53.1647 44.1862 52.4566 45.0423 52.4566C45.8984 52.4566 46.5924 53.1647 46.5924 54.0383C46.5924 54.9118 45.8984 55.62 45.0423 55.62C44.1862 55.62 43.4922 54.9118 43.4922 54.0383Z" fill="black"/>
<path d="M43.4612 63.802C43.4612 64.693 44.1691 65.4154 45.0423 65.4154C45.9155 65.4154 46.6234 64.693 46.6234 63.802C46.6234 62.911 45.9155 62.1886 45.0423 62.1886C44.1691 62.1886 43.4612 62.911 43.4612 63.802ZM43.2855 63.802C43.2855 62.812 44.072 62.0094 45.0423 62.0094C46.0125 62.0094 46.7991 62.812 46.7991 63.802C46.7991 64.792 46.0125 65.5946 45.0423 65.5946C44.072 65.5946 43.2855 64.792 43.2855 63.802Z" fill="black"/>
<path d="M43.2752 73.5657C43.2752 74.5615 44.0664 75.3689 45.0423 75.3689C46.0182 75.3689 46.8094 74.5615 46.8094 73.5657C46.8094 72.5699 46.0182 71.7626 45.0423 71.7626C44.0664 71.7626 43.2752 72.5699 43.2752 73.5657ZM43.0788 73.5657C43.0788 72.4592 43.9579 71.5622 45.0423 71.5622C46.1267 71.5622 47.0057 72.4592 47.0057 73.5657C47.0057 74.6722 46.1267 75.5692 45.0423 75.5692C43.9579 75.5692 43.0788 74.6722 43.0788 73.5657Z" fill="black"/>
<path d="M43.0892 83.3294C43.0892 84.4301 43.9636 85.3224 45.0423 85.3224C46.1209 85.3224 46.9954 84.4301 46.9954 83.3294C46.9954 82.2288 46.1209 81.3365 45.0423 81.3365C43.9636 81.3365 43.0892 82.2288 43.0892 83.3294ZM42.8722 83.3294C42.8722 82.1065 43.8438 81.115 45.0423 81.115C46.2407 81.115 47.2124 82.1065 47.2124 83.3294C47.2124 84.5524 46.2407 85.5439 45.0423 85.5439C43.8438 85.5439 42.8722 84.5524 42.8722 83.3294Z" fill="black"/>
<path d="M42.9032 93.0932C42.9032 94.2987 43.8609 95.2759 45.0423 95.2759C46.2237 95.2759 47.1814 94.2987 47.1814 93.0932C47.1814 91.8876 46.2237 90.9104 45.0423 90.9104C43.8609 90.9104 42.9032 91.8876 42.9032 93.0932ZM42.6655 93.0932C42.6655 91.7537 43.7296 90.6678 45.0423 90.6678C46.355 90.6678 47.4191 91.7537 47.4191 93.0932C47.4191 94.4326 46.355 95.5185 45.0423 95.5185C43.7296 95.5185 42.6655 94.4326 42.6655 93.0932Z" fill="black"/>
<path d="M54.2077 5.21968C54.2077 5.44678 54.3882 5.63093 54.6108 5.63093C54.8333 5.63093 55.0138 5.44678 55.0138 5.21968C55.0138 4.99257 54.8333 4.80843 54.6108 4.80843C54.3882 4.80843 54.2077 4.99257 54.2077 5.21968ZM54.163 5.21968C54.163 4.96729 54.3634 4.76274 54.6108 4.76274C54.8581 4.76274 55.0586 4.96729 55.0586 5.21968C55.0586 5.47207 54.8581 5.67662 54.6108 5.67662C54.3634 5.67662 54.163 5.47207 54.163 5.21968Z" fill="black"/>
<path d="M54.0466 14.9834C54.0466 15.3014 54.2991 15.5592 54.6108 15.5592C54.9224 15.5592 55.1749 15.3014 55.1749 14.9834C55.1749 14.6654 54.9224 14.4076 54.6108 14.4076C54.2991 14.4076 54.0466 14.6654 54.0466 14.9834ZM53.9838 14.9834C53.9838 14.6301 54.2646 14.3437 54.6108 14.3437C54.957 14.3437 55.2377 14.6301 55.2377 14.9834C55.2377 15.3368 54.957 15.6231 54.6108 15.6231C54.2646 15.6231 53.9838 15.3368 53.9838 14.9834Z" fill="black"/>
<path d="M53.8853 24.7471C53.8853 25.1559 54.2101 25.4874 54.6108 25.4874C55.0115 25.4874 55.3363 25.1559 55.3363 24.7471C55.3363 24.3383 55.0115 24.0068 54.6108 24.0068C54.2101 24.0068 53.8853 24.3383 53.8853 24.7471ZM53.8047 24.7471C53.8047 24.2929 54.1656 23.9246 54.6108 23.9246C55.0559 23.9246 55.4168 24.2929 55.4168 24.7471C55.4168 25.2013 55.0559 25.5696 54.6108 25.5696C54.1656 25.5696 53.8047 25.2013 53.8047 24.7471Z" fill="black"/>
<path d="M53.7241 34.5108C53.7241 35.0105 54.1211 35.4156 54.6108 35.4156C55.1004 35.4156 55.4975 35.0105 55.4975 34.5108C55.4975 34.0111 55.1004 33.606 54.6108 33.606C54.1211 33.606 53.7241 34.0111 53.7241 34.5108ZM53.6256 34.5108C53.6256 33.9556 54.0666 33.5056 54.6108 33.5056C55.1549 33.5056 55.5959 33.9556 55.5959 34.5108C55.5959 35.0661 55.1549 35.5161 54.6108 35.5161C54.0666 35.5161 53.6256 35.0661 53.6256 34.5108Z" fill="black"/>
<path d="M53.5629 44.2746C53.5629 44.8651 54.0321 45.3438 54.6108 45.3438C55.1895 45.3438 55.6586 44.8651 55.6586 44.2746C55.6586 43.684 55.1895 43.2053 54.6108 43.2053C54.0321 43.2053 53.5629 43.684 53.5629 44.2746ZM53.4465 44.2746C53.4465 43.6183 53.9677 43.0865 54.6108 43.0865C55.2539 43.0865 55.7751 43.6183 55.7751 44.2746C55.7751 44.9308 55.2539 45.4626 54.6108 45.4626C53.9677 45.4626 53.4465 44.9308 53.4465 44.2746Z" fill="black"/>
<path d="M53.4017 54.0383C53.4017 54.7197 53.943 55.272 54.6108 55.272C55.2785 55.272 55.8198 54.7197 55.8198 54.0383C55.8198 53.3569 55.2785 52.8045 54.6108 52.8045C53.943 52.8045 53.4017 53.3569 53.4017 54.0383ZM53.2673 54.0383C53.2673 53.2812 53.8688 52.6675 54.6108 52.6675C55.3527 52.6675 55.9542 53.2812 55.9542 54.0383C55.9542 54.7954 55.3527 55.4091 54.6108 55.4091C53.8688 55.4091 53.2673 54.7954 53.2673 54.0383Z" fill="black"/>
<path d="M53.2406 63.802C53.2406 64.5742 53.854 65.2002 54.6108 65.2002C55.3675 65.2002 55.981 64.5742 55.981 63.802C55.981 63.0298 55.3675 62.4038 54.6108 62.4038C53.854 62.4038 53.2406 63.0298 53.2406 63.802ZM53.0882 63.802C53.0882 62.944 53.7699 62.2484 54.6108 62.2484C55.4516 62.2484 56.1333 62.944 56.1333 63.802C56.1333 64.66 55.4516 65.3556 54.6108 65.3556C53.7699 65.3556 53.0882 64.66 53.0882 63.802Z" fill="black"/>
<path d="M53.0792 73.5657C53.0792 74.4288 53.7649 75.1285 54.6108 75.1285C55.4566 75.1285 56.1423 74.4288 56.1423 73.5657C56.1423 72.7026 55.4566 72.0029 54.6108 72.0029C53.7649 72.0029 53.0792 72.7026 53.0792 73.5657ZM52.9091 73.5657C52.9091 72.6067 53.671 71.8293 54.6108 71.8293C55.5506 71.8293 56.3124 72.6067 56.3124 73.5657C56.3124 74.5247 55.5506 75.3021 54.6108 75.3021C53.671 75.3021 52.9091 74.5247 52.9091 73.5657Z" fill="black"/>
<path d="M52.9181 83.3294C52.9181 84.2835 53.6758 85.0566 54.6108 85.0566C55.5457 85.0566 56.3034 84.2835 56.3034 83.3294C56.3034 82.3754 55.5457 81.6022 54.6108 81.6022C53.6758 81.6022 52.9181 82.3754 52.9181 83.3294ZM52.73 83.3294C52.73 82.2696 53.5721 81.4103 54.6108 81.4103C55.6494 81.4103 56.4916 82.2696 56.4916 83.3294C56.4916 84.3893 55.6494 85.2486 54.6108 85.2486C53.5721 85.2486 52.73 84.3893 52.73 83.3294Z" fill="black"/>
<path d="M52.7569 93.0932C52.7569 94.1379 53.5869 94.9849 54.6108 94.9849C55.6346 94.9849 56.4647 94.1379 56.4647 93.0932C56.4647 92.0484 55.6346 91.2014 54.6108 91.2014C53.5869 91.2014 52.7569 92.0484 52.7569 93.0932ZM52.5509 93.0932C52.5509 91.9322 53.4731 90.9912 54.6108 90.9912C55.7485 90.9912 56.6707 91.9322 56.6707 93.0932C56.6707 94.2541 55.7485 95.1951 54.6108 95.1951C53.4731 95.1951 52.5509 94.2541 52.5509 93.0932Z" fill="black"/>
<path d="M63.8382 5.21968C63.8382 5.41183 63.9908 5.56766 64.1792 5.56766C64.3677 5.56766 64.5203 5.41183 64.5203 5.21968C64.5203 5.02753 64.3677 4.87171 64.1792 4.87171C63.9908 4.87171 63.8382 5.02753 63.8382 5.21968ZM63.8003 5.21968C63.8003 5.00615 63.97 4.83304 64.1792 4.83304C64.3886 4.83304 64.5582 5.00615 64.5582 5.21968C64.5582 5.43321 64.3886 5.60632 64.1792 5.60632C63.97 5.60632 63.8003 5.43321 63.8003 5.21968Z" fill="black"/>
<path d="M63.7019 14.9834C63.7019 15.2525 63.9155 15.4706 64.1792 15.4706C64.443 15.4706 64.6566 15.2525 64.6566 14.9834C64.6566 14.7143 64.443 14.4962 64.1792 14.4962C63.9155 14.4962 63.7019 14.7143 63.7019 14.9834ZM63.6488 14.9834C63.6488 14.6844 63.8863 14.4421 64.1792 14.4421C64.4722 14.4421 64.7097 14.6844 64.7097 14.9834C64.7097 15.2824 64.4722 15.5247 64.1792 15.5247C63.8863 15.5247 63.6488 15.2824 63.6488 14.9834Z" fill="black"/>
<path d="M63.5654 24.7471C63.5654 25.0931 63.8402 25.3735 64.1792 25.3735C64.5183 25.3735 64.7931 25.0931 64.7931 24.7471C64.7931 24.4012 64.5183 24.1208 64.1792 24.1208C63.8402 24.1208 63.5654 24.4012 63.5654 24.7471ZM63.4972 24.7471C63.4972 24.3627 63.8025 24.0512 64.1792 24.0512C64.556 24.0512 64.8613 24.3627 64.8613 24.7471C64.8613 25.1315 64.556 25.4431 64.1792 25.4431C63.8025 25.4431 63.4972 25.1315 63.4972 24.7471Z" fill="black"/>
<path d="M63.429 34.5108C63.429 34.9337 63.7649 35.2764 64.1792 35.2764C64.5936 35.2764 64.9295 34.9337 64.9295 34.5108C64.9295 34.088 64.5936 33.7453 64.1792 33.7453C63.7649 33.7453 63.429 34.088 63.429 34.5108ZM63.3456 34.5108C63.3456 34.041 63.7188 33.6602 64.1792 33.6602C64.6397 33.6602 65.0129 34.041 65.0129 34.5108C65.0129 34.9807 64.6397 35.3615 64.1792 35.3615C63.7188 35.3615 63.3456 34.9807 63.3456 34.5108Z" fill="black"/>
<path d="M63.2925 44.2746C63.2925 44.7743 63.6896 45.1794 64.1792 45.1794C64.6689 45.1794 65.066 44.7743 65.066 44.2746C65.066 43.7749 64.6689 43.3698 64.1792 43.3698C63.6896 43.3698 63.2925 43.7749 63.2925 44.2746ZM63.1941 44.2746C63.1941 43.7193 63.6351 43.2693 64.1792 43.2693C64.7234 43.2693 65.1644 43.7193 65.1644 44.2746C65.1644 44.8298 64.7234 45.2798 64.1792 45.2798C63.6351 45.2798 63.1941 44.8298 63.1941 44.2746Z" fill="black"/>
<path d="M63.1562 54.0383C63.1562 54.6148 63.6142 55.0822 64.1792 55.0822C64.7443 55.0822 65.2023 54.6148 65.2023 54.0383C65.2023 53.4617 64.7443 52.9943 64.1792 52.9943C63.6142 52.9943 63.1562 53.4617 63.1562 54.0383ZM63.0425 54.0383C63.0425 53.3976 63.5514 52.8784 64.1792 52.8784C64.8071 52.8784 65.316 53.3976 65.316 54.0383C65.316 54.679 64.8071 55.1982 64.1792 55.1982C63.5514 55.1982 63.0425 54.679 63.0425 54.0383Z" fill="black"/>
<path d="M63.0198 63.802C63.0198 64.4554 63.5389 64.9851 64.1793 64.9851C64.8196 64.9851 65.3387 64.4554 65.3387 63.802C65.3387 63.1486 64.8196 62.6189 64.1793 62.6189C63.5389 62.6189 63.0198 63.1486 63.0198 63.802ZM62.8909 63.802C62.8909 63.076 63.4677 62.4874 64.1793 62.4874C64.8908 62.4874 65.4676 63.076 65.4676 63.802C65.4676 64.528 64.8908 65.1166 64.1793 65.1166C63.4677 65.1166 62.8909 64.528 62.8909 63.802Z" fill="black"/>
<path d="M62.8834 73.5657C62.8834 74.296 63.4636 74.888 64.1792 74.888C64.8949 74.888 65.4751 74.296 65.4751 73.5657C65.4751 72.8355 64.8949 72.2434 64.1792 72.2434C63.4636 72.2434 62.8834 72.8355 62.8834 73.5657ZM62.7394 73.5657C62.7394 72.7543 63.384 72.0965 64.1792 72.0965C64.9745 72.0965 65.6191 72.7543 65.6191 73.5657C65.6191 74.3772 64.9745 75.035 64.1792 75.035C63.384 75.035 62.7394 74.3772 62.7394 73.5657Z" fill="black"/>
<path d="M62.7469 83.3294C62.7469 84.1366 63.3882 84.791 64.1793 84.791C64.9703 84.791 65.6116 84.1366 65.6116 83.3294C65.6116 82.5223 64.9703 81.8679 64.1793 81.8679C63.3882 81.8679 62.7469 82.5223 62.7469 83.3294ZM62.5878 83.3294C62.5878 82.4325 63.3003 81.7056 64.1793 81.7056C65.0582 81.7056 65.7707 82.4325 65.7707 83.3294C65.7707 84.2263 65.0582 84.9533 64.1793 84.9533C63.3003 84.9533 62.5878 84.2263 62.5878 83.3294Z" fill="black"/>
<path d="M62.6105 93.0932C62.6105 93.9773 63.3128 94.6939 64.1793 94.6939C65.0457 94.6939 65.748 93.9773 65.748 93.0932C65.748 92.209 65.0457 91.4924 64.1793 91.4924C63.3128 91.4924 62.6105 92.209 62.6105 93.0932ZM62.4363 93.0932C62.4363 92.1108 63.2166 91.3146 64.1793 91.3146C65.1419 91.3146 65.9222 92.1108 65.9222 93.0932C65.9222 94.0755 65.1419 94.8717 64.1793 94.8717C63.2166 94.8717 62.4363 94.0755 62.4363 93.0932Z" fill="black"/>
<path d="M73.4687 5.21968C73.4687 5.37688 73.5937 5.50439 73.7477 5.50439C73.9018 5.50439 74.0267 5.37688 74.0267 5.21968C74.0267 5.06239 73.9018 4.93497 73.7477 4.93497C73.5937 4.93497 73.4687 5.06239 73.4687 5.21968ZM73.4377 5.21968C73.4377 5.04491 73.5765 4.90333 73.7477 4.90333C73.9189 4.90333 74.0577 5.04491 74.0577 5.21968C74.0577 5.39435 73.9189 5.53603 73.7477 5.53603C73.5765 5.53603 73.4377 5.39435 73.4377 5.21968Z" fill="black"/>
<path d="M73.3571 14.9834C73.3571 15.2036 73.532 15.382 73.7477 15.382C73.9635 15.382 74.1383 15.2036 74.1383 14.9834C74.1383 14.7632 73.9635 14.5847 73.7477 14.5847C73.532 14.5847 73.3571 14.7632 73.3571 14.9834ZM73.3137 14.9834C73.3137 14.7388 73.508 14.5405 73.7477 14.5405C73.9874 14.5405 74.1818 14.7388 74.1818 14.9834C74.1818 15.228 73.9874 15.4263 73.7477 15.4263C73.508 15.4263 73.3137 15.228 73.3137 14.9834Z" fill="black"/>
<path d="M73.2455 24.7471C73.2455 25.0302 73.4704 25.2596 73.7477 25.2596C74.025 25.2596 74.25 25.0302 74.25 24.7471C74.25 24.4641 74.025 24.2346 73.7477 24.2346C73.4704 24.2346 73.2455 24.4641 73.2455 24.7471ZM73.1897 24.7471C73.1897 24.4326 73.4395 24.1777 73.7477 24.1777C74.0559 24.1777 74.3058 24.4326 74.3058 24.7471C74.3058 25.0616 74.0559 25.3165 73.7477 25.3165C73.4395 25.3165 73.1897 25.0616 73.1897 24.7471Z" fill="black"/>
<path d="M73.1339 34.5108C73.1339 34.8568 73.4087 35.1372 73.7477 35.1372C74.0867 35.1372 74.3615 34.8568 74.3615 34.5108C74.3615 34.1649 74.0867 33.8845 73.7477 33.8845C73.4087 33.8845 73.1339 34.1649 73.1339 34.5108ZM73.0657 34.5108C73.0657 34.1264 73.371 33.8149 73.7477 33.8149C74.1244 33.8149 74.4298 34.1264 74.4298 34.5108C74.4298 34.8952 74.1244 35.2068 73.7477 35.2068C73.371 35.2068 73.0657 34.8952 73.0657 34.5108Z" fill="black"/>
<path d="M73.0223 44.2746C73.0223 44.6835 73.3471 45.0148 73.7477 45.0148C74.1485 45.0148 74.4732 44.6835 74.4732 44.2746C74.4732 43.8658 74.1485 43.5343 73.7477 43.5343C73.3471 43.5343 73.0223 43.8658 73.0223 44.2746ZM72.9417 44.2746C72.9417 43.8204 73.3026 43.4521 73.7477 43.4521C74.1929 43.4521 74.5538 43.8204 74.5538 44.2746C74.5538 44.7288 74.1929 45.0971 73.7477 45.0971C73.3026 45.0971 72.9417 44.7288 72.9417 44.2746Z" fill="black"/>
<path d="M72.9107 54.0383C72.9107 54.51 73.2855 54.8924 73.7477 54.8924C74.21 54.8924 74.5848 54.51 74.5848 54.0383C74.5848 53.5666 74.21 53.1842 73.7477 53.1842C73.2855 53.1842 72.9107 53.5666 72.9107 54.0383ZM72.8177 54.0383C72.8177 53.5142 73.2341 53.0892 73.7477 53.0892C74.2614 53.0892 74.6778 53.5142 74.6778 54.0383C74.6778 54.5624 74.2614 54.9873 73.7477 54.9873C73.2341 54.9873 72.8177 54.5624 72.8177 54.0383Z" fill="black"/>
<path d="M72.7991 63.802C72.7991 64.3367 73.2238 64.77 73.7477 64.77C74.2717 64.77 74.6964 64.3367 74.6964 63.802C74.6964 63.2673 74.2717 62.834 73.7477 62.834C73.2238 62.834 72.7991 63.2673 72.7991 63.802ZM72.6937 63.802C72.6937 63.208 73.1656 62.7264 73.7477 62.7264C74.3299 62.7264 74.8018 63.208 74.8018 63.802C74.8018 64.396 74.3299 64.8776 73.7477 64.8776C73.1656 64.8776 72.6937 64.396 72.6937 63.802Z" fill="black"/>
<path d="M72.6874 73.5657C72.6874 74.1633 73.1621 74.6476 73.7477 74.6476C74.3333 74.6476 74.808 74.1633 74.808 73.5657C74.808 72.9682 74.3333 72.4838 73.7477 72.4838C73.1621 72.4838 72.6874 72.9682 72.6874 73.5657ZM72.5697 73.5657C72.5697 72.9018 73.0971 72.3636 73.7477 72.3636C74.3984 72.3636 74.9259 72.9018 74.9259 73.5657C74.9259 74.2297 74.3984 74.7678 73.7477 74.7678C73.0971 74.7678 72.5697 74.2297 72.5697 73.5657Z" fill="black"/>
<path d="M72.5759 83.3295C72.5759 83.9899 73.1005 84.5252 73.7477 84.5252C74.3949 84.5252 74.9196 83.9899 74.9196 83.3295C74.9196 82.669 74.3949 82.1337 73.7477 82.1337C73.1005 82.1337 72.5759 82.669 72.5759 83.3295ZM72.4456 83.3295C72.4456 82.5956 73.0286 82.0008 73.7477 82.0008C74.4669 82.0008 75.0498 82.5956 75.0498 83.3295C75.0498 84.0633 74.4669 84.6581 73.7477 84.6581C73.0286 84.6581 72.4456 84.0633 72.4456 83.3295Z" fill="black"/>
<path d="M72.4642 93.0932C72.4642 93.8164 73.0389 94.4029 73.7477 94.4029C74.4566 94.4029 75.0312 93.8164 75.0312 93.0932C75.0312 92.3699 74.4566 91.7834 73.7477 91.7834C73.0389 91.7834 72.4642 92.3699 72.4642 93.0932ZM72.3216 93.0932C72.3216 92.2895 72.9602 91.638 73.7477 91.638C74.5353 91.638 75.1738 92.2895 75.1738 93.0932C75.1738 93.8968 74.5353 94.5483 73.7477 94.5483C72.9602 94.5483 72.3216 93.8968 72.3216 93.0932Z" fill="black"/>
<path d="M83.0992 5.21969C83.0992 5.34193 83.1963 5.44112 83.3162 5.44112C83.4361 5.44112 83.5332 5.34193 83.5332 5.21969C83.5332 5.09744 83.4361 4.99825 83.3162 4.99825C83.1963 4.99825 83.0992 5.09744 83.0992 5.21969ZM83.0751 5.21969C83.0751 5.08377 83.183 4.97364 83.3162 4.97364C83.4494 4.97364 83.5573 5.08377 83.5573 5.21969C83.5573 5.3555 83.4494 5.46573 83.3162 5.46573C83.183 5.46573 83.0751 5.3555 83.0751 5.21969Z" fill="black"/>
<path d="M83.0124 14.9834C83.0124 15.1546 83.1484 15.2934 83.3162 15.2934C83.484 15.2934 83.62 15.1546 83.62 14.9834C83.62 14.8122 83.484 14.6734 83.3162 14.6734C83.1484 14.6734 83.0124 14.8122 83.0124 14.9834ZM82.9786 14.9834C82.9786 14.7932 83.1298 14.6389 83.3162 14.6389C83.5026 14.6389 83.6538 14.7932 83.6538 14.9834C83.6538 15.1736 83.5026 15.3279 83.3162 15.3279C83.1298 15.3279 82.9786 15.1736 82.9786 14.9834Z" fill="black"/>
<path d="M82.9256 24.7471C82.9256 24.9673 83.1004 25.1458 83.3162 25.1458C83.532 25.1458 83.7068 24.9673 83.7068 24.7471C83.7068 24.5269 83.532 24.3485 83.3162 24.3485C83.1004 24.3485 82.9256 24.5269 82.9256 24.7471ZM82.8822 24.7471C82.8822 24.5025 83.0765 24.3042 83.3162 24.3042C83.5559 24.3042 83.7502 24.5025 83.7502 24.7471C83.7502 24.9917 83.5559 25.19 83.3162 25.19C83.0765 25.19 82.8822 24.9917 82.8822 24.7471Z" fill="black"/>
<path d="M82.8388 34.5108C82.8388 34.7799 83.0525 34.9981 83.3162 34.9981C83.5799 34.9981 83.7936 34.7799 83.7936 34.5108C83.7936 34.2418 83.5799 34.0236 83.3162 34.0236C83.0525 34.0236 82.8388 34.2418 82.8388 34.5108ZM82.7857 34.5108C82.7857 34.2119 83.0232 33.9695 83.3162 33.9695C83.6092 33.9695 83.8467 34.2119 83.8467 34.5108C83.8467 34.8098 83.6092 35.0521 83.3162 35.0521C83.0232 35.0521 82.7857 34.8098 82.7857 34.5108Z" fill="black"/>
<path d="M82.7521 44.2746C82.7521 44.5926 83.0046 44.8502 83.3162 44.8502C83.6279 44.8502 83.8804 44.5926 83.8804 44.2746C83.8804 43.9566 83.6279 43.6989 83.3162 43.6989C83.0046 43.6989 82.7521 43.9566 82.7521 44.2746ZM82.6893 44.2746C82.6893 43.9213 82.97 43.6348 83.3162 43.6348C83.6624 43.6348 83.9431 43.9213 83.9431 44.2746C83.9431 44.6278 83.6624 44.9143 83.3162 44.9143C82.97 44.9143 82.6893 44.6278 82.6893 44.2746Z" fill="black"/>
<path d="M82.6652 54.0383C82.6652 54.4052 82.9566 54.7026 83.3162 54.7026C83.6758 54.7026 83.9672 54.4052 83.9672 54.0383C83.9672 53.6714 83.6758 53.374 83.3162 53.374C82.9566 53.374 82.6652 53.6714 82.6652 54.0383ZM82.5928 54.0383C82.5928 53.6306 82.9166 53.3001 83.3162 53.3001C83.7158 53.3001 84.0396 53.6306 84.0396 54.0383C84.0396 54.4459 83.7158 54.7764 83.3162 54.7764C82.9166 54.7764 82.5928 54.4459 82.5928 54.0383Z" fill="black"/>
<path d="M82.5784 63.802C82.5784 64.2178 82.9087 64.5549 83.3162 64.5549C83.7237 64.5549 84.054 64.2178 84.054 63.802C84.054 63.3862 83.7237 63.0491 83.3162 63.0491C82.9087 63.0491 82.5784 63.3862 82.5784 63.802ZM82.4964 63.802C82.4964 63.34 82.8634 62.9655 83.3162 62.9655C83.769 62.9655 84.136 63.34 84.136 63.802C84.136 64.264 83.769 64.6386 83.3162 64.6386C82.8634 64.6386 82.4964 64.264 82.4964 63.802Z" fill="black"/>
<path d="M82.4916 73.5657C82.4916 74.0305 82.8607 74.4072 83.3162 74.4072C83.7717 74.4072 84.1408 74.0305 84.1408 73.5657C84.1408 73.101 83.7717 72.7243 83.3162 72.7243C82.8607 72.7243 82.4916 73.101 82.4916 73.5657ZM82.3999 73.5657C82.3999 73.0493 82.8101 72.6308 83.3162 72.6308C83.8223 72.6308 84.2325 73.0493 84.2325 73.5657C84.2325 74.0821 83.8223 74.5007 83.3162 74.5007C82.8101 74.5007 82.3999 74.0821 82.3999 73.5657Z" fill="black"/>
<path d="M82.4048 83.3294C82.4048 83.8431 82.8128 84.2594 83.3162 84.2594C83.8196 84.2594 84.2276 83.8431 84.2276 83.3294C84.2276 82.8158 83.8196 82.3995 83.3162 82.3995C82.8128 82.3995 82.4048 82.8158 82.4048 83.3294ZM82.3035 83.3294C82.3035 82.7587 82.7568 82.2961 83.3162 82.2961C83.8756 82.2961 84.3289 82.7587 84.3289 83.3294C84.3289 83.9002 83.8756 84.3628 83.3162 84.3628C82.7568 84.3628 82.3035 83.9002 82.3035 83.3294Z" fill="black"/>
<path d="M82.3179 93.0932C82.3179 93.6558 82.7649 94.1118 83.3162 94.1118C83.8675 94.1118 84.3145 93.6558 84.3145 93.0932C84.3145 92.5306 83.8675 92.0745 83.3162 92.0745C82.7649 92.0745 82.3179 92.5306 82.3179 93.0932ZM82.207 93.0932C82.207 92.4681 82.7036 91.9613 83.3162 91.9613C83.9288 91.9613 84.4254 92.4681 84.4254 93.0932C84.4254 93.7182 83.9288 94.225 83.3162 94.225C82.7036 94.225 82.207 93.7182 82.207 93.0932Z" fill="black"/>
<path d="M92.7297 5.21968C92.7297 5.30707 92.799 5.37786 92.8847 5.37786C92.9703 5.37786 93.0397 5.30707 93.0397 5.21968C93.0397 5.1323 92.9703 5.06151 92.8847 5.06151C92.799 5.06151 92.7297 5.1323 92.7297 5.21968ZM92.7125 5.21968C92.7125 5.12263 92.7896 5.04393 92.8847 5.04393C92.9798 5.04393 93.0569 5.12263 93.0569 5.21968C93.0569 5.31673 92.9798 5.39543 92.8847 5.39543C92.7896 5.39543 92.7125 5.31673 92.7125 5.21968Z" fill="black"/>
<path d="M92.6677 14.9834C92.6677 15.1056 92.7648 15.2048 92.8847 15.2048C93.0046 15.2048 93.1017 15.1056 93.1017 14.9834C93.1017 14.8612 93.0046 14.762 92.8847 14.762C92.7648 14.762 92.6677 14.8612 92.6677 14.9834ZM92.6436 14.9834C92.6436 14.8475 92.7515 14.7374 92.8847 14.7374C93.0179 14.7374 93.1258 14.8475 93.1258 14.9834C93.1258 15.1193 93.0179 15.2294 92.8847 15.2294C92.7515 15.2294 92.6436 15.1193 92.6436 14.9834Z" fill="black"/>
<path d="M92.6057 24.7471C92.6057 24.9043 92.7306 25.0318 92.8847 25.0318C93.0387 25.0318 93.1637 24.9043 93.1637 24.7471C93.1637 24.5899 93.0387 24.4624 92.8847 24.4624C92.7306 24.4624 92.6057 24.5899 92.6057 24.7471ZM92.5747 24.7471C92.5747 24.5724 92.7135 24.4308 92.8847 24.4308C93.0559 24.4308 93.1947 24.5724 93.1947 24.7471C93.1947 24.9219 93.0559 25.0635 92.8847 25.0635C92.7135 25.0635 92.5747 24.9219 92.5747 24.7471Z" fill="black"/>
<path d="M92.5437 34.5108C92.5437 34.703 92.6963 34.8588 92.8847 34.8588C93.0731 34.8588 93.2257 34.703 93.2257 34.5108C93.2257 34.3187 93.0731 34.1629 92.8847 34.1629C92.6963 34.1629 92.5437 34.3187 92.5437 34.5108ZM92.5058 34.5108C92.5058 34.2973 92.6754 34.1242 92.8847 34.1242C93.0941 34.1242 93.2636 34.2973 93.2636 34.5108C93.2636 34.7244 93.0941 34.8975 92.8847 34.8975C92.6754 34.8975 92.5058 34.7244 92.5058 34.5108Z" fill="black"/>
<path d="M92.4817 44.2746C92.4817 44.5017 92.6621 44.6858 92.8847 44.6858C93.1072 44.6858 93.2877 44.5017 93.2877 44.2746C93.2877 44.0475 93.1072 43.8633 92.8847 43.8633C92.6621 43.8633 92.4817 44.0475 92.4817 44.2746ZM92.4369 44.2746C92.4369 44.0222 92.6373 43.8176 92.8847 43.8176C93.132 43.8176 93.3325 44.0222 93.3325 44.2746C93.3325 44.527 93.132 44.7315 92.8847 44.7315C92.6373 44.7315 92.4369 44.527 92.4369 44.2746Z" fill="black"/>
<path d="M92.4197 54.0383C92.4197 54.3004 92.6279 54.5128 92.8847 54.5128C93.1415 54.5128 93.3497 54.3004 93.3497 54.0383C93.3497 53.7761 93.1415 53.5638 92.8847 53.5638C92.6279 53.5638 92.4197 53.7761 92.4197 54.0383ZM92.368 54.0383C92.368 53.7471 92.5994 53.511 92.8847 53.511C93.17 53.511 93.4014 53.7471 93.4014 54.0383C93.4014 54.3294 93.17 54.5655 92.8847 54.5655C92.5994 54.5655 92.368 54.3294 92.368 54.0383Z" fill="black"/>
<path d="M92.3577 63.802C92.3577 64.099 92.5936 64.3398 92.8847 64.3398C93.1758 64.3398 93.4117 64.099 93.4117 63.802C93.4117 63.505 93.1758 63.2642 92.8847 63.2642C92.5936 63.2642 92.3577 63.505 92.3577 63.802ZM92.2991 63.802C92.2991 63.472 92.5613 63.2045 92.8847 63.2045C93.2081 63.2045 93.4703 63.472 93.4703 63.802C93.4703 64.132 93.2081 64.3995 92.8847 64.3995C92.5613 64.3995 92.2991 64.132 92.2991 63.802Z" fill="black"/>
<path d="M92.2957 73.5657C92.2957 73.8976 92.5595 74.1668 92.8847 74.1668C93.2099 74.1668 93.4737 73.8976 93.4737 73.5657C93.4737 73.2339 93.2099 72.9647 92.8847 72.9647C92.5595 72.9647 92.2957 73.2339 92.2957 73.5657ZM92.2302 73.5657C92.2302 73.1969 92.5233 72.8979 92.8847 72.8979C93.2461 72.8979 93.5392 73.1969 93.5392 73.5657C93.5392 73.9345 93.2461 74.2336 92.8847 74.2336C92.5233 74.2336 92.2302 73.9345 92.2302 73.5657Z" fill="black"/>
<path d="M92.2337 83.3294C92.2337 83.6964 92.5251 83.9938 92.8847 83.9938C93.2443 83.9938 93.5357 83.6964 93.5357 83.3294C93.5357 82.9625 93.2443 82.6651 92.8847 82.6651C92.5251 82.6651 92.2337 82.9625 92.2337 83.3294ZM92.1613 83.3294C92.1613 82.9218 92.4851 82.5913 92.8847 82.5913C93.2843 82.5913 93.6081 82.9218 93.6081 83.3294C93.6081 83.7371 93.2843 84.0676 92.8847 84.0676C92.4851 84.0676 92.1613 83.7371 92.1613 83.3294Z" fill="black"/>
<path d="M92.1717 93.0932C92.1717 93.4949 92.491 93.8208 92.8847 93.8208C93.2784 93.8208 93.5977 93.4949 93.5977 93.0932C93.5977 92.6914 93.2784 92.3656 92.8847 92.3656C92.491 92.3656 92.1717 92.6914 92.1717 93.0932ZM92.0924 93.0932C92.0924 92.6467 92.4471 92.2847 92.8847 92.2847C93.3223 92.2847 93.677 92.6467 93.677 93.0932C93.677 93.5397 93.3223 93.9016 92.8847 93.9016C92.4471 93.9016 92.0924 93.5397 92.0924 93.0932Z" fill="black"/>
<path d="M1.65344 0.337821C1.65344 0.151334 1.80149 0 1.98411 0C2.16673 0 2.31478 0.151334 2.31478 0.337821C2.31478 0.52421 2.16673 0.675251 1.98411 0.675251C1.80149 0.675251 1.65344 0.52421 1.65344 0.337821Z" fill="black"/>
<path d="M1.48808 10.1015C1.48808 9.822 1.71014 9.59539 1.98411 9.59539C2.25808 9.59539 2.48014 9.822 2.48014 10.1015C2.48014 10.3811 2.25808 10.6077 1.98411 10.6077C1.71014 10.6077 1.48808 10.3811 1.48808 10.1015Z" fill="black"/>
<path d="M1.32273 19.8653C1.32273 19.4926 1.61886 19.1904 1.98411 19.1904C2.34936 19.1904 2.6455 19.4926 2.6455 19.8653C2.6455 20.2379 2.34936 20.5401 1.98411 20.5401C1.61886 20.5401 1.32273 20.2379 1.32273 19.8653Z" fill="black"/>
<path d="M1.15737 29.629C1.15737 29.1632 1.52751 28.7854 1.98411 28.7854C2.44071 28.7854 2.81085 29.1632 2.81085 29.629C2.81085 30.0948 2.44071 30.4726 1.98411 30.4726C1.52751 30.4726 1.15737 30.0948 1.15737 29.629Z" fill="black"/>
<path d="M0.992012 39.3927C0.992012 38.8336 1.4362 38.3804 1.98411 38.3804C2.53202 38.3804 2.97621 38.8336 2.97621 39.3927C2.97621 39.9519 2.53202 40.405 1.98411 40.405C1.4362 40.405 0.992012 39.9519 0.992012 39.3927Z" fill="black"/>
<path d="M0.826698 49.1564C0.826698 48.5041 1.34489 47.9754 1.98411 47.9754C2.62333 47.9754 3.14152 48.5041 3.14152 49.1564C3.14152 49.8087 2.62333 50.3374 1.98411 50.3374C1.34489 50.3374 0.826698 49.8087 0.826698 49.1564Z" fill="black"/>
<path d="M0.661345 58.9201C0.661345 58.1747 1.25358 57.5704 1.98411 57.5704C2.71464 57.5704 3.30688 58.1747 3.30688 58.9201C3.30688 59.6656 2.71464 60.2699 1.98411 60.2699C1.25358 60.2699 0.661345 59.6656 0.661345 58.9201Z" fill="black"/>
<path d="M0.49602 68.6839C0.49602 67.8453 1.16223 67.1654 1.98411 67.1654C2.80599 67.1654 3.4722 67.8453 3.4722 68.6839C3.4722 69.5225 2.80599 70.2023 1.98411 70.2023C1.16223 70.2023 0.49602 69.5225 0.49602 68.6839Z" fill="black"/>
<path d="M0.330706 78.4476C0.330706 77.5157 1.07096 76.7604 1.98411 76.7604C2.89727 76.7604 3.63752 77.5157 3.63752 78.4476C3.63752 79.3794 2.89727 80.1348 1.98411 80.1348C1.07096 80.1348 0.330706 79.3794 0.330706 78.4476Z" fill="black"/>
<path d="M0.165353 88.2113C0.165353 87.1863 0.979612 86.3554 1.98411 86.3554C2.98861 86.3554 3.80287 87.1863 3.80287 88.2113C3.80287 89.2363 2.98861 90.0672 1.98411 90.0672C0.979612 90.0672 0.165353 89.2363 0.165353 88.2113Z" fill="black"/>
<path d="M0 97.975C0 96.8569 0.888328 95.9504 1.98411 95.9504C3.07989 95.9504 3.96822 96.8569 3.96822 97.975C3.96822 99.093 3.07989 100 1.98411 100C0.888328 100 0 99.093 0 97.975Z" fill="black"/>
<path d="M11.2495 0.337826C11.2495 0.166961 11.3852 0.0283144 11.5526 0.0283144C11.72 0.0283144 11.8557 0.166961 11.8557 0.337826C11.8557 0.508691 11.72 0.647138 11.5526 0.647138C11.3852 0.647138 11.2495 0.508691 11.2495 0.337826Z" fill="black"/>
<path d="M11.0979 10.1015C11.0979 9.84524 11.3015 9.63758 11.5526 9.63758C11.8038 9.63758 12.0073 9.84524 12.0073 10.1015C12.0073 10.3578 11.8038 10.5655 11.5526 10.5655C11.3015 10.5655 11.0979 10.3578 11.0979 10.1015Z" fill="black"/>
<path d="M10.9463 19.8653C10.9463 19.5236 11.2177 19.2466 11.5526 19.2466C11.8875 19.2466 12.1589 19.5236 12.1589 19.8653C12.1589 20.2069 11.8875 20.4839 11.5526 20.4839C11.2177 20.4839 10.9463 20.2069 10.9463 19.8653Z" fill="black"/>
<path d="M10.7948 29.629C10.7948 29.2019 11.1341 28.8557 11.5526 28.8557C11.9711 28.8557 12.3104 29.2019 12.3104 29.629C12.3104 30.056 11.9711 30.4023 11.5526 30.4023C11.1341 30.4023 10.7948 30.056 10.7948 29.629Z" fill="black"/>
<path d="M10.6432 39.3927C10.6432 38.8802 11.0504 38.4648 11.5526 38.4648C12.0548 38.4648 12.462 38.8802 12.462 39.3927C12.462 39.9052 12.0548 40.3206 11.5526 40.3206C11.0504 40.3206 10.6432 39.9052 10.6432 39.3927Z" fill="black"/>
<path d="M10.4916 49.1564C10.4916 48.5585 10.9667 48.0738 11.5526 48.0738C12.1386 48.0738 12.6135 48.5585 12.6135 49.1564C12.6135 49.7544 12.1386 50.239 11.5526 50.239C10.9667 50.239 10.4916 49.7544 10.4916 49.1564Z" fill="black"/>
<path d="M10.3401 58.9201C10.3401 58.2368 10.883 57.6829 11.5526 57.6829C12.2223 57.6829 12.7651 58.2368 12.7651 58.9201C12.7651 59.6035 12.2223 60.1574 11.5526 60.1574C10.883 60.1574 10.3401 59.6035 10.3401 58.9201Z" fill="black"/>
<path d="M10.1885 68.6839C10.1885 67.9152 10.7992 67.2919 11.5526 67.2919C12.306 67.2919 12.9167 67.9152 12.9167 68.6839C12.9167 69.4526 12.306 70.0758 11.5526 70.0758C10.7992 70.0758 10.1885 69.4526 10.1885 68.6839Z" fill="black"/>
<path d="M10.037 78.4476C10.037 77.5935 10.7155 76.901 11.5526 76.901C12.3896 76.901 13.0682 77.5935 13.0682 78.4476C13.0682 79.3017 12.3896 79.9942 11.5526 79.9942C10.7155 79.9942 10.037 79.3017 10.037 78.4476Z" fill="black"/>
<path d="M9.8854 88.2113C9.8854 87.2717 10.6318 86.5101 11.5526 86.5101C12.4734 86.5101 13.2198 87.2717 13.2198 88.2113C13.2198 89.1509 12.4734 89.9125 11.5526 89.9125C10.6318 89.9125 9.8854 89.1509 9.8854 88.2113Z" fill="black"/>
<path d="M9.73384 97.975C9.73384 96.95 10.5481 96.1191 11.5526 96.1191C12.5571 96.1191 13.3714 96.95 13.3714 97.975C13.3714 99.0002 12.5571 99.8311 11.5526 99.8311C10.5481 99.8311 9.73384 99.0002 9.73384 97.975Z" fill="black"/>
<path d="M20.8455 0.337817C20.8455 0.182574 20.9688 0.0566236 21.1211 0.0566236C21.2733 0.0566236 21.3966 0.182574 21.3966 0.337817C21.3966 0.493158 21.2733 0.61901 21.1211 0.61901C20.9688 0.61901 20.8455 0.493158 20.8455 0.337817Z" fill="black"/>
<path d="M20.7077 10.1015C20.7077 9.86858 20.8928 9.67975 21.1211 9.67975C21.3494 9.67975 21.5344 9.86858 21.5344 10.1015C21.5344 10.3345 21.3494 10.5233 21.1211 10.5233C20.8928 10.5233 20.7077 10.3345 20.7077 10.1015Z" fill="black"/>
<path d="M20.5699 19.8653C20.5699 19.5547 20.8167 19.3029 21.1211 19.3029C21.4254 19.3029 21.6722 19.5547 21.6722 19.8653C21.6722 20.1758 21.4254 20.4277 21.1211 20.4277C20.8167 20.4277 20.5699 20.1758 20.5699 19.8653Z" fill="black"/>
<path d="M20.4321 29.629C20.4321 29.2407 20.7405 28.926 21.1211 28.926C21.5016 28.926 21.81 29.2407 21.81 29.629C21.81 30.0173 21.5016 30.332 21.1211 30.332C20.7405 30.332 20.4321 30.0173 20.4321 29.629Z" fill="black"/>
<path d="M20.2944 39.3927C20.2944 38.9269 20.6645 38.5491 21.1211 38.5491C21.5777 38.5491 21.9478 38.9269 21.9478 39.3927C21.9478 39.8585 21.5777 40.2363 21.1211 40.2363C20.6645 40.2363 20.2944 39.8585 20.2944 39.3927Z" fill="black"/>
<path d="M20.1566 49.1564C20.1566 48.6129 20.5884 48.1722 21.1211 48.1722C21.6538 48.1722 22.0856 48.6129 22.0856 49.1564C22.0856 49.7 21.6538 50.1406 21.1211 50.1406C20.5884 50.1406 20.1566 49.7 20.1566 49.1564Z" fill="black"/>
<path d="M20.0188 58.9201C20.0188 58.299 20.5123 57.7954 21.1211 57.7954C21.7298 57.7954 22.2234 58.299 22.2234 58.9201C22.2234 59.5413 21.7298 60.0449 21.1211 60.0449C20.5123 60.0449 20.0188 59.5413 20.0188 58.9201Z" fill="black"/>
<path d="M19.881 68.6839C19.881 67.9851 20.4362 67.4185 21.1211 67.4185C21.806 67.4185 22.3612 67.9851 22.3612 68.6839C22.3612 69.3827 21.806 69.9492 21.1211 69.9492C20.4362 69.9492 19.881 69.3827 19.881 68.6839Z" fill="black"/>
<path d="M19.7432 78.4476C19.7432 77.6711 20.3601 77.0416 21.1211 77.0416C21.8821 77.0416 22.4989 77.6711 22.4989 78.4476C22.4989 79.2241 21.8821 79.8536 21.1211 79.8536C20.3601 79.8536 19.7432 79.2241 19.7432 78.4476Z" fill="black"/>
<path d="M19.6054 88.2113C19.6054 87.3572 20.284 86.6647 21.1211 86.6647C21.9581 86.6647 22.6367 87.3572 22.6367 88.2113C22.6367 89.0654 21.9581 89.7579 21.1211 89.7579C20.284 89.7579 19.6054 89.0654 19.6054 88.2113Z" fill="black"/>
<path d="M19.4676 97.975C19.4676 97.0432 20.208 96.2878 21.1211 96.2878C22.0342 96.2878 22.7745 97.0432 22.7745 97.975C22.7745 98.9065 22.0342 99.6622 21.1211 99.6622C20.208 99.6622 19.4676 98.9065 19.4676 97.975Z" fill="black"/>
<path d="M30.4415 0.337815C30.4415 0.198193 30.5525 0.0849305 30.6896 0.0849305C30.8266 0.0849305 30.9376 0.198193 30.9376 0.337815C30.9376 0.477631 30.8266 0.59089 30.6896 0.59089C30.5525 0.59089 30.4415 0.477631 30.4415 0.337815Z" fill="black"/>
<path d="M30.3175 10.1015C30.3175 9.89182 30.4841 9.72193 30.6896 9.72193C30.895 9.72193 31.0616 9.89182 31.0616 10.1015C31.0616 10.3112 30.895 10.4812 30.6896 10.4812C30.4841 10.4812 30.3175 10.3112 30.3175 10.1015Z" fill="black"/>
<path d="M30.1935 19.8653C30.1935 19.5857 30.4156 19.3591 30.6896 19.3591C30.9635 19.3591 31.1856 19.5857 31.1856 19.8653C31.1856 20.1448 30.9635 20.3714 30.6896 20.3714C30.4156 20.3714 30.1935 20.1448 30.1935 19.8653Z" fill="black"/>
<path d="M30.0695 29.629C30.0695 29.2795 30.3471 28.9963 30.6896 28.9963C31.032 28.9963 31.3096 29.2795 31.3096 29.629C31.3096 29.9784 31.032 30.2617 30.6896 30.2617C30.3471 30.2617 30.0695 29.9784 30.0695 29.629Z" fill="black"/>
<path d="M29.9455 39.3927C29.9455 38.9734 30.2787 38.6335 30.6896 38.6335C31.1004 38.6335 31.4336 38.9734 31.4336 39.3927C31.4336 39.8121 31.1004 40.1519 30.6896 40.1519C30.2787 40.1519 29.9455 39.8121 29.9455 39.3927Z" fill="black"/>
<path d="M29.8215 49.1564C29.8215 48.6672 30.2102 48.2707 30.6896 48.2707C31.1689 48.2707 31.5576 48.6672 31.5576 49.1564C31.5576 49.6457 31.1689 50.0422 30.6896 50.0422C30.2102 50.0422 29.8215 49.6457 29.8215 49.1564Z" fill="black"/>
<path d="M29.6975 58.9201C29.6975 58.361 30.1417 57.9078 30.6896 57.9078C31.2375 57.9078 31.6816 58.361 31.6816 58.9201C31.6816 59.4793 31.2375 59.9324 30.6896 59.9324C30.1417 59.9324 29.6975 59.4793 29.6975 58.9201Z" fill="black"/>
<path d="M29.5735 68.6839C29.5735 68.055 30.0732 67.545 30.6896 67.545C31.3059 67.545 31.8056 68.055 31.8056 68.6839C31.8056 69.3128 31.3059 69.8227 30.6896 69.8227C30.0732 69.8227 29.5735 69.3128 29.5735 68.6839Z" fill="black"/>
<path d="M29.4495 78.4476C29.4495 77.7488 30.0046 77.1822 30.6896 77.1822C31.3744 77.1822 31.9296 77.7488 31.9296 78.4476C31.9296 79.1464 31.3744 79.713 30.6896 79.713C30.0046 79.713 29.4495 79.1464 29.4495 78.4476Z" fill="black"/>
<path d="M29.3255 88.2113C29.3255 87.4426 29.9361 86.8194 30.6896 86.8194C31.4429 86.8194 32.0536 87.4426 32.0536 88.2113C32.0536 88.98 31.4429 89.6032 30.6896 89.6032C29.9361 89.6032 29.3255 88.98 29.3255 88.2113Z" fill="black"/>
<path d="M29.2015 97.975C29.2015 97.1364 29.8677 96.4566 30.6896 96.4566C31.5114 96.4566 32.1776 97.1364 32.1776 97.975C32.1776 98.8137 31.5114 99.4933 30.6896 99.4933C29.8677 99.4933 29.2015 98.8137 29.2015 97.975Z" fill="black"/>
<path d="M40.0376 0.33782C40.0376 0.213821 40.1363 0.113254 40.258 0.113254C40.3797 0.113254 40.4785 0.213821 40.4785 0.33782C40.4785 0.462015 40.3797 0.562777 40.258 0.562777C40.1363 0.562777 40.0376 0.462015 40.0376 0.33782Z" fill="black"/>
<path d="M39.9274 10.1015C39.9274 9.91515 40.0755 9.76411 40.258 9.76411C40.4406 9.76411 40.5887 9.91515 40.5887 10.1015C40.5887 10.2879 40.4406 10.439 40.258 10.439C40.0755 10.439 39.9274 10.2879 39.9274 10.1015Z" fill="black"/>
<path d="M39.8171 19.8653C39.8171 19.6168 40.0145 19.4153 40.258 19.4153C40.5016 19.4153 40.699 19.6168 40.699 19.8653C40.699 20.1137 40.5016 20.3152 40.258 20.3152C40.0145 20.3152 39.8171 20.1137 39.8171 19.8653Z" fill="black"/>
<path d="M39.7069 29.629C39.7069 29.3184 39.9536 29.0666 40.258 29.0666C40.5625 29.0666 40.8092 29.3184 40.8092 29.629C40.8092 29.9396 40.5625 30.1914 40.258 30.1914C39.9536 30.1914 39.7069 29.9396 39.7069 29.629Z" fill="black"/>
<path d="M39.5967 39.3927C39.5967 39.02 39.8928 38.7178 40.258 38.7178C40.6233 38.7178 40.9194 39.02 40.9194 39.3927C40.9194 39.7654 40.6233 40.0676 40.258 40.0676C39.8928 40.0676 39.5967 39.7654 39.5967 39.3927Z" fill="black"/>
<path d="M39.4864 49.1564C39.4864 48.7216 39.832 48.3691 40.258 48.3691C40.6841 48.3691 41.0296 48.7216 41.0296 49.1564C41.0296 49.5912 40.6841 49.9438 40.258 49.9438C39.832 49.9438 39.4864 49.5912 39.4864 49.1564Z" fill="black"/>
<path d="M39.3762 58.9201C39.3762 58.4232 39.771 58.0203 40.258 58.0203C40.7451 58.0203 41.1399 58.4232 41.1399 58.9201C41.1399 59.4171 40.7451 59.82 40.258 59.82C39.771 59.82 39.3762 59.4171 39.3762 58.9201Z" fill="black"/>
<path d="M39.266 68.6839C39.266 68.1247 39.7101 67.6716 40.258 67.6716C40.806 67.6716 41.2501 68.1247 41.2501 68.6839C41.2501 69.243 40.806 69.6962 40.258 69.6962C39.7101 69.6962 39.266 69.243 39.266 68.6839Z" fill="black"/>
<path d="M39.1558 78.4476C39.1558 77.8264 39.6493 77.3228 40.258 77.3228C40.8668 77.3228 41.3603 77.8264 41.3603 78.4476C41.3603 79.0687 40.8668 79.5724 40.258 79.5724C39.6493 79.5724 39.1558 79.0687 39.1558 78.4476Z" fill="black"/>
<path d="M39.0455 88.2113C39.0455 87.5279 39.5883 86.974 40.258 86.974C40.9277 86.974 41.4706 87.5279 41.4706 88.2113C41.4706 88.8946 40.9277 89.4486 40.258 89.4486C39.5883 89.4486 39.0455 88.8946 39.0455 88.2113Z" fill="black"/>
<path d="M38.9353 97.975C38.9353 97.2295 39.5275 96.6253 40.258 96.6253C40.9886 96.6253 41.5808 97.2295 41.5808 97.975C41.5808 98.72 40.9886 99.3244 40.258 99.3244C39.5275 99.3244 38.9353 98.72 38.9353 97.975Z" fill="black"/>
<path d="M49.6336 0.337818C49.6336 0.229441 49.72 0.140589 49.8265 0.140589C49.933 0.140589 50.0194 0.229441 50.0194 0.337818C50.0194 0.446488 49.933 0.534656 49.8265 0.534656C49.72 0.534656 49.6336 0.446488 49.6336 0.337818Z" fill="black"/>
<path d="M49.5372 10.1015C49.5372 9.93848 49.6667 9.80628 49.8265 9.80628C49.9863 9.80628 50.1159 9.93848 50.1159 10.1015C50.1159 10.2646 49.9863 10.3968 49.8265 10.3968C49.6667 10.3968 49.5372 10.2646 49.5372 10.1015Z" fill="black"/>
<path d="M49.4407 19.8653C49.4407 19.6478 49.6134 19.4716 49.8265 19.4716C50.0396 19.4716 50.2123 19.6478 50.2123 19.8653C50.2123 20.0827 50.0396 20.2589 49.8265 20.2589C49.6134 20.2589 49.4407 20.0827 49.4407 19.8653Z" fill="black"/>
<path d="M49.3443 29.629C49.3443 29.3572 49.5602 29.1369 49.8265 29.1369C50.0928 29.1369 50.3088 29.3572 50.3088 29.629C50.3088 29.9008 50.0928 30.1211 49.8265 30.1211C49.5602 30.1211 49.3443 29.9008 49.3443 29.629Z" fill="black"/>
<path d="M49.2478 39.3927C49.2478 39.0666 49.5069 38.8022 49.8265 38.8022C50.1461 38.8022 50.4052 39.0666 50.4052 39.3927C50.4052 39.7188 50.1461 39.9832 49.8265 39.9832C49.5069 39.9832 49.2478 39.7188 49.2478 39.3927Z" fill="black"/>
<path d="M49.1514 49.1564C49.1514 48.776 49.4537 48.4675 49.8265 48.4675C50.1993 48.4675 50.5017 48.776 50.5017 49.1564C50.5017 49.5368 50.1993 49.8453 49.8265 49.8453C49.4537 49.8453 49.1514 49.5368 49.1514 49.1564Z" fill="black"/>
<path d="M49.0549 58.9201C49.0549 58.4853 49.4004 58.1328 49.8265 58.1328C50.2526 58.1328 50.5981 58.4853 50.5981 58.9201C50.5981 59.355 50.2526 59.7075 49.8265 59.7075C49.4004 59.7075 49.0549 59.355 49.0549 58.9201Z" fill="black"/>
<path d="M48.9585 68.6839C48.9585 68.1946 49.347 67.7981 49.8265 67.7981C50.306 67.7981 50.6946 68.1946 50.6946 68.6839C50.6946 69.1731 50.306 69.5696 49.8265 69.5696C49.347 69.5696 48.9585 69.1731 48.9585 68.6839Z" fill="black"/>
<path d="M48.862 78.4476C48.862 77.904 49.2938 77.4634 49.8265 77.4634C50.3592 77.4634 50.791 77.904 50.791 78.4476C50.791 78.9911 50.3592 79.4318 49.8265 79.4318C49.2938 79.4318 48.862 78.9911 48.862 78.4476Z" fill="black"/>
<path d="M48.7656 88.2113C48.7656 87.6134 49.2406 87.1287 49.8265 87.1287C50.4125 87.1287 50.8875 87.6134 50.8875 88.2113C50.8875 88.8092 50.4125 89.2939 49.8265 89.2939C49.2406 89.2939 48.7656 88.8092 48.7656 88.2113Z" fill="black"/>
<path d="M48.6691 97.975C48.6691 97.3227 49.1873 96.794 49.8265 96.794C50.4658 96.794 50.9839 97.3227 50.9839 97.975C50.9839 98.6273 50.4658 99.1564 49.8265 99.1564C49.1873 99.1564 48.6691 98.6273 48.6691 97.975Z" fill="black"/>
<path d="M59.2296 0.337823C59.2296 0.245068 59.3037 0.168913 59.395 0.168913C59.4863 0.168913 59.5604 0.245068 59.5604 0.337823C59.5604 0.430969 59.4863 0.506543 59.395 0.506543C59.3037 0.506543 59.2296 0.430969 59.2296 0.337823Z" fill="black"/>
<path d="M59.147 10.1015C59.147 9.96173 59.258 9.84847 59.395 9.84847C59.532 9.84847 59.643 9.96173 59.643 10.1015C59.643 10.2414 59.532 10.3546 59.395 10.3546C59.258 10.3546 59.147 10.2414 59.147 10.1015Z" fill="black"/>
<path d="M59.0643 19.8653C59.0643 19.6789 59.2124 19.5278 59.395 19.5278C59.5776 19.5278 59.7257 19.6789 59.7257 19.8653C59.7257 20.0517 59.5776 20.2027 59.395 20.2027C59.2124 20.2027 59.0643 20.0517 59.0643 19.8653Z" fill="black"/>
<path d="M58.9816 29.629C58.9816 29.396 59.1667 29.2072 59.395 29.2072C59.6233 29.2072 59.8084 29.396 59.8084 29.629C59.8084 29.8619 59.6233 30.0508 59.395 30.0508C59.1667 30.0508 58.9816 29.8619 58.9816 29.629Z" fill="black"/>
<path d="M58.899 39.3927C58.899 39.1132 59.1211 38.8865 59.395 38.8865C59.669 38.8865 59.891 39.1132 59.891 39.3927C59.891 39.6722 59.669 39.8988 59.395 39.8988C59.1211 39.8988 58.899 39.6722 58.899 39.3927Z" fill="black"/>
<path d="M58.8163 49.1564C58.8163 48.8303 59.0754 48.5659 59.395 48.5659C59.7146 48.5659 59.9737 48.8303 59.9737 49.1564C59.9737 49.4825 59.7146 49.7469 59.395 49.7469C59.0754 49.7469 58.8163 49.4825 58.8163 49.1564Z" fill="black"/>
<path d="M58.7336 58.9201C58.7336 58.5475 59.0298 58.2453 59.395 58.2453C59.7602 58.2453 60.0564 58.5475 60.0564 58.9201C60.0564 59.2928 59.7602 59.595 59.395 59.595C59.0298 59.595 58.7336 59.2928 58.7336 58.9201Z" fill="black"/>
<path d="M58.651 68.6839C58.651 68.2645 58.984 67.9246 59.395 67.9246C59.806 67.9246 60.139 68.2645 60.139 68.6839C60.139 69.1032 59.806 69.4431 59.395 69.4431C58.984 69.4431 58.651 69.1032 58.651 68.6839Z" fill="black"/>
<path d="M58.5683 78.4476C58.5683 77.9818 58.9385 77.604 59.395 77.604C59.8515 77.604 60.2217 77.9818 60.2217 78.4476C60.2217 78.9134 59.8515 79.2912 59.395 79.2912C58.9385 79.2912 58.5683 78.9134 58.5683 78.4476Z" fill="black"/>
<path d="M58.4856 88.2113C58.4856 87.6988 58.8928 87.2834 59.395 87.2834C59.8973 87.2834 60.3044 87.6988 60.3044 88.2113C60.3044 88.7238 59.8973 89.1392 59.395 89.1392C58.8928 89.1392 58.4856 88.7238 58.4856 88.2113Z" fill="black"/>
<path d="M58.4029 97.975C58.4029 97.4159 58.847 96.9627 59.395 96.9627C59.943 96.9627 60.3871 97.4159 60.3871 97.975C60.3871 98.5345 59.943 98.9875 59.395 98.9875C58.847 98.9875 58.4029 98.5345 58.4029 97.975Z" fill="black"/>
<path d="M68.8257 0.337821C68.8257 0.259711 68.8874 0.19722 68.9635 0.19722C69.0396 0.19722 69.1013 0.259711 69.1013 0.337821C69.1013 0.415443 69.0396 0.478423 68.9635 0.478423C68.8874 0.478423 68.8257 0.415443 68.8257 0.337821Z" fill="black"/>
<path d="M68.7568 10.1015C68.7568 9.98506 68.8493 9.89065 68.9635 9.89065C69.0776 9.89065 69.1702 9.98506 69.1702 10.1015C69.1702 10.218 69.0776 10.3124 68.9635 10.3124C68.8493 10.3124 68.7568 10.218 68.7568 10.1015Z" fill="black"/>
<path d="M68.6879 19.8653C68.6879 19.7099 68.8112 19.5841 68.9635 19.5841C69.1157 19.5841 69.2391 19.7099 69.2391 19.8653C69.2391 20.0206 69.1157 20.1465 68.9635 20.1465C68.8112 20.1465 68.6879 20.0206 68.6879 19.8653Z" fill="black"/>
<path d="M68.619 29.629C68.619 29.4349 68.7733 29.2775 68.9635 29.2775C69.1537 29.2775 69.308 29.4349 69.308 29.629C69.308 29.8231 69.1537 29.9805 68.9635 29.9805C68.7733 29.9805 68.619 29.8231 68.619 29.629Z" fill="black"/>
<path d="M68.5501 39.3927C68.5501 39.1597 68.7352 38.9709 68.9635 38.9709C69.1918 38.9709 69.3769 39.1597 69.3769 39.3927C69.3769 39.6257 69.1918 39.8145 68.9635 39.8145C68.7352 39.8145 68.5501 39.6257 68.5501 39.3927Z" fill="black"/>
<path d="M68.4812 49.1564C68.4812 48.8847 68.6972 48.6643 68.9635 48.6643C69.2298 48.6643 69.4457 48.8847 69.4457 49.1564C69.4457 49.4281 69.2298 49.6485 68.9635 49.6485C68.6972 49.6485 68.4812 49.4281 68.4812 49.1564Z" fill="black"/>
<path d="M68.4123 58.9201C68.4123 58.6095 68.659 58.3577 68.9635 58.3577C69.268 58.3577 69.5146 58.6095 69.5146 58.9201C69.5146 59.2308 69.268 59.4825 68.9635 59.4825C68.659 59.4825 68.4123 59.2308 68.4123 58.9201Z" fill="black"/>
<path d="M68.3435 68.6839C68.3435 68.3344 68.621 68.0512 68.9635 68.0512C69.3059 68.0512 69.5835 68.3344 69.5835 68.6839C69.5835 69.0333 69.3059 69.3166 68.9635 69.3166C68.621 69.3166 68.3435 69.0333 68.3435 68.6839Z" fill="black"/>
<path d="M68.2746 78.4476C68.2746 78.0593 68.5829 77.7446 68.9635 77.7446C69.344 77.7446 69.6524 78.0593 69.6524 78.4476C69.6524 78.8359 69.344 79.1506 68.9635 79.1506C68.5829 79.1506 68.2746 78.8359 68.2746 78.4476Z" fill="black"/>
<path d="M68.2057 88.2113C68.2057 87.7842 68.545 87.438 68.9635 87.438C69.382 87.438 69.7213 87.7842 69.7213 88.2113C69.7213 88.6384 69.382 88.9846 68.9635 88.9846C68.545 88.9846 68.2057 88.6384 68.2057 88.2113Z" fill="black"/>
<path d="M68.1368 97.975C68.1368 97.5092 68.507 97.1314 68.9635 97.1314C69.42 97.1314 69.7902 97.5092 69.7902 97.975C69.7902 98.4407 69.42 98.8186 68.9635 98.8186C68.507 98.8186 68.1368 98.4407 68.1368 97.975Z" fill="black"/>
<path d="M78.4217 0.337829C78.4217 0.275341 78.471 0.225546 78.532 0.225546C78.5929 0.225546 78.6422 0.275341 78.6422 0.337829C78.6422 0.399926 78.5929 0.450302 78.532 0.450302C78.471 0.450302 78.4217 0.399926 78.4217 0.337829Z" fill="black"/>
<path d="M78.3665 10.1015C78.3665 10.0084 78.4407 9.93282 78.532 9.93282C78.6232 9.93282 78.6974 10.0084 78.6974 10.1015C78.6974 10.1947 78.6232 10.2703 78.532 10.2703C78.4407 10.2703 78.3665 10.1947 78.3665 10.1015Z" fill="black"/>
<path d="M78.3115 19.8653C78.3115 19.7411 78.4103 19.6403 78.532 19.6403C78.6537 19.6403 78.7524 19.7411 78.7524 19.8653C78.7524 19.9895 78.6537 20.0902 78.532 20.0902C78.4103 20.0902 78.3115 19.9895 78.3115 19.8653Z" fill="black"/>
<path d="M78.2564 29.629C78.2564 29.4736 78.3797 29.3478 78.532 29.3478C78.6842 29.3478 78.8075 29.4736 78.8075 29.629C78.8075 29.7843 78.6842 29.9102 78.532 29.9102C78.3797 29.9102 78.2564 29.7843 78.2564 29.629Z" fill="black"/>
<path d="M78.2013 39.3927C78.2013 39.2064 78.3494 39.0553 78.532 39.0553C78.7145 39.0553 78.8627 39.2064 78.8627 39.3927C78.8627 39.579 78.7145 39.7301 78.532 39.7301C78.3494 39.7301 78.2013 39.579 78.2013 39.3927Z" fill="black"/>
<path d="M78.1462 49.1564C78.1462 48.939 78.3189 48.7627 78.532 48.7627C78.7451 48.7627 78.9178 48.939 78.9178 49.1564C78.9178 49.3739 78.7451 49.5501 78.532 49.5501C78.3189 49.5501 78.1462 49.3739 78.1462 49.1564Z" fill="black"/>
<path d="M78.091 58.9201C78.091 58.6716 78.2884 58.4702 78.532 58.4702C78.7755 58.4702 78.9729 58.6716 78.9729 58.9201C78.9729 59.1686 78.7755 59.3701 78.532 59.3701C78.2884 59.3701 78.091 59.1686 78.091 58.9201Z" fill="black"/>
<path d="M78.0359 68.6839C78.0359 68.4043 78.258 68.1777 78.532 68.1777C78.8059 68.1777 79.028 68.4043 79.028 68.6839C79.028 68.9634 78.8059 69.19 78.532 69.19C78.258 69.19 78.0359 68.9634 78.0359 68.6839Z" fill="black"/>
<path d="M77.9808 78.4476C77.9808 78.1369 78.2275 77.8852 78.532 77.8852C78.8364 77.8852 79.0831 78.1369 79.0831 78.4476C79.0831 78.7583 78.8364 79.01 78.532 79.01C78.2275 79.01 77.9808 78.7583 77.9808 78.4476Z" fill="black"/>
<path d="M77.9257 88.2113C77.9257 87.8697 78.1972 87.5927 78.532 87.5927C78.8668 87.5927 79.1382 87.8697 79.1382 88.2113C79.1382 88.5529 78.8668 88.8299 78.532 88.8299C78.1972 88.8299 77.9257 88.5529 77.9257 88.2113Z" fill="black"/>
<path d="M77.8706 97.975C77.8706 97.6023 78.1667 97.3001 78.532 97.3001C78.8972 97.3001 79.1933 97.6023 79.1933 97.975C79.1933 98.348 78.8972 98.6497 78.532 98.6497C78.1667 98.6497 77.8706 98.348 77.8706 97.975Z" fill="black"/>
<path d="M88.0178 0.337819C88.0178 0.290953 88.0547 0.253855 88.1004 0.253855C88.1462 0.253855 88.1831 0.290953 88.1831 0.337819C88.1831 0.384392 88.1462 0.422174 88.1004 0.422174C88.0547 0.422174 88.0178 0.384392 88.0178 0.337819Z" fill="black"/>
<path d="M87.9764 10.1016C87.9764 10.0316 88.0319 9.97501 88.1004 9.97501C88.169 9.97501 88.2245 10.0316 88.2245 10.1016C88.2245 10.1715 88.169 10.2281 88.1004 10.2281C88.0319 10.2281 87.9764 10.1715 87.9764 10.1016Z" fill="black"/>
<path d="M87.935 19.8653C87.935 19.7721 88.0092 19.6965 88.1004 19.6965C88.1917 19.6965 88.2659 19.7721 88.2659 19.8653C88.2659 19.9584 88.1917 20.034 88.1004 20.034C88.0092 20.034 87.935 19.9584 87.935 19.8653Z" fill="black"/>
<path d="M87.8938 29.629C87.8938 29.5125 87.9863 29.4181 88.1004 29.4181C88.2146 29.4181 88.3071 29.5125 88.3071 29.629C88.3071 29.7455 88.2146 29.8399 88.1004 29.8399C87.9863 29.8399 87.8938 29.7455 87.8938 29.629Z" fill="black"/>
<path d="M87.8524 39.3927C87.8524 39.2529 87.9634 39.1396 88.1004 39.1396C88.2375 39.1396 88.3485 39.2529 88.3485 39.3927C88.3485 39.5325 88.2375 39.6458 88.1004 39.6458C87.9634 39.6458 87.8524 39.5325 87.8524 39.3927Z" fill="black"/>
<path d="M87.8111 49.1564C87.8111 48.9934 87.9407 48.8612 88.1004 48.8612C88.2602 48.8612 88.3898 48.9934 88.3898 49.1564C88.3898 49.3195 88.2602 49.4517 88.1004 49.4517C87.9407 49.4517 87.8111 49.3195 87.8111 49.1564Z" fill="black"/>
<path d="M87.7698 58.9201C87.7698 58.7338 87.9179 58.5827 88.1004 58.5827C88.283 58.5827 88.4311 58.7338 88.4311 58.9201C88.4311 59.1064 88.283 59.2576 88.1004 59.2576C87.9179 59.2576 87.7698 59.1064 87.7698 58.9201Z" fill="black"/>
<path d="M87.7284 68.6839C87.7284 68.4742 87.895 68.3043 88.1004 68.3043C88.3059 68.3043 88.4725 68.4742 88.4725 68.6839C88.4725 68.8935 88.3059 69.0635 88.1004 69.0635C87.895 69.0635 87.7284 68.8935 87.7284 68.6839Z" fill="black"/>
<path d="M87.6871 78.4476C87.6871 78.2146 87.8721 78.0258 88.1004 78.0258C88.3288 78.0258 88.5138 78.2146 88.5138 78.4476C88.5138 78.6805 88.3288 78.8694 88.1004 78.8694C87.8721 78.8694 87.6871 78.6805 87.6871 78.4476Z" fill="black"/>
<path d="M87.6458 88.2113C87.6458 87.9551 87.8494 87.7473 88.1004 87.7473C88.3515 87.7473 88.5551 87.9551 88.5551 88.2113C88.5551 88.4675 88.3515 88.6753 88.1004 88.6753C87.8494 88.6753 87.6458 88.4675 87.6458 88.2113Z" fill="black"/>
<path d="M87.6044 97.975C87.6044 97.6955 87.8265 97.4689 88.1004 97.4689C88.3744 97.4689 88.5965 97.6955 88.5965 97.975C88.5965 98.2542 88.3744 98.4808 88.1004 98.4808C87.8265 98.4808 87.6044 98.2542 87.6044 97.975Z" fill="black"/>
<path d="M97.6138 0.337817C97.6138 0.306573 97.6385 0.281189 97.6689 0.281189C97.6995 0.281189 97.7244 0.306573 97.7244 0.337817C97.7244 0.368866 97.6995 0.394054 97.6689 0.394054C97.6385 0.394054 97.6138 0.368866 97.6138 0.337817Z" fill="black"/>
<path d="M97.5863 10.1015C97.5863 10.055 97.6232 10.0172 97.6689 10.0172C97.7149 10.0172 97.7512 10.055 97.7512 10.1015C97.7512 10.1481 97.7149 10.1859 97.6689 10.1859C97.6232 10.1859 97.5863 10.1481 97.5863 10.1015Z" fill="black"/>
<path d="M97.5587 19.8653C97.5587 19.8032 97.608 19.7528 97.6689 19.7528C97.7302 19.7528 97.779 19.8032 97.779 19.8653C97.779 19.9274 97.7302 19.9777 97.6689 19.9777C97.608 19.9777 97.5587 19.9274 97.5587 19.8653Z" fill="black"/>
<path d="M97.5311 29.629C97.5311 29.5514 97.5929 29.4884 97.6689 29.4884C97.7445 29.4884 97.8067 29.5514 97.8067 29.629C97.8067 29.7066 97.7445 29.7696 97.6689 29.7696C97.5929 29.7696 97.5311 29.7066 97.5311 29.629Z" fill="black"/>
<path d="M97.5035 39.3927C97.5035 39.2996 97.5776 39.224 97.6689 39.224C97.7598 39.224 97.8345 39.2996 97.8345 39.3927C97.8345 39.4858 97.7598 39.5614 97.6689 39.5614C97.5776 39.5614 97.5035 39.4858 97.5035 39.3927Z" fill="black"/>
<path d="M97.476 49.1564C97.476 49.0478 97.5624 48.9596 97.6689 48.9596C97.7751 48.9596 97.8622 49.0478 97.8622 49.1564C97.8622 49.2651 97.7751 49.3533 97.6689 49.3533C97.5624 49.3533 97.476 49.2651 97.476 49.1564Z" fill="black"/>
<path d="M97.4485 58.9201C97.4485 58.796 97.5472 58.6952 97.6689 58.6952C97.7904 58.6952 97.889 58.796 97.889 58.9201C97.889 59.0443 97.7904 59.1451 97.6689 59.1451C97.5472 59.1451 97.4485 59.0443 97.4485 58.9201Z" fill="black"/>
<path d="M97.4209 68.6839C97.4209 68.544 97.5319 68.4308 97.6689 68.4308C97.8058 68.4308 97.9168 68.544 97.9168 68.6839C97.9168 68.8237 97.8058 68.9369 97.6689 68.9369C97.5319 68.9369 97.4209 68.8237 97.4209 68.6839Z" fill="black"/>
<path d="M97.3934 78.4476C97.3934 78.2923 97.5167 78.1664 97.6689 78.1664C97.8211 78.1664 97.9445 78.2923 97.9445 78.4476C97.9445 78.6029 97.8211 78.7288 97.6689 78.7288C97.5167 78.7288 97.3934 78.6029 97.3934 78.4476Z" fill="black"/>
<path d="M97.3658 88.2113C97.3658 88.0404 97.5015 87.902 97.6689 87.902C97.8364 87.902 97.9723 88.0404 97.9723 88.2113C97.9723 88.3822 97.8364 88.5206 97.6689 88.5206C97.5015 88.5206 97.3658 88.3822 97.3658 88.2113Z" fill="black"/>
<path d="M97.3382 97.975C97.3382 97.7887 97.4864 97.6376 97.6689 97.6376C97.8517 97.6376 98 97.7887 98 97.975C98 98.1615 97.8517 98.3129 97.6689 98.3129C97.4864 98.3129 97.3382 98.1615 97.3382 97.975Z" fill="black"/>
</g>
<defs>
<clipPath id="clip0_37_958">
<rect width="98" height="100" fill="white"/>
</clipPath>
</defs>
</svg>
