<svg width="91" height="8" viewBox="0 0 91 8" fill="none" xmlns="http://www.w3.org/2000/svg">
<path d="M0.364425 3.71879C0.364425 5.56726 1.83297 7.06569 3.64443 7.06569C5.4559 7.06569 6.92444 5.56726 6.92444 3.71879C6.92444 1.87032 5.4559 0.371895 3.64443 0.371895C1.83297 0.371895 0.364425 1.87032 0.364425 3.71879ZM0 3.71879C0 1.66497 1.63166 0 3.64443 0C5.65721 0 7.28887 1.66497 7.28887 3.71879C7.28887 5.77257 5.65721 7.43759 3.64443 7.43759C1.63166 7.43759 0 5.77257 0 3.71879Z" fill="black"/>
<path d="M10.2182 3.71879C10.2182 5.40643 11.5589 6.77472 13.2129 6.77472C14.8669 6.77472 16.2077 5.40643 16.2077 3.71879C16.2077 2.03111 14.8669 0.662827 13.2129 0.662827C11.5589 0.662827 10.2182 2.03111 10.2182 3.71879ZM9.88538 3.71879C9.88538 1.84358 11.3752 0.323341 13.2129 0.323341C15.0506 0.323341 16.5405 1.84358 16.5405 3.71879C16.5405 5.594 15.0506 7.1142 13.2129 7.1142C11.3752 7.1142 9.88538 5.594 9.88538 3.71879Z" fill="black"/>
<path d="M20.0719 3.71879C20.0719 5.24581 21.285 6.48357 22.7814 6.48357C24.2778 6.48357 25.4909 5.24581 25.4909 3.71879C25.4909 2.19172 24.2778 0.953979 22.7814 0.953979C21.285 0.953979 20.0719 2.19172 20.0719 3.71879ZM19.7708 3.71879C19.7708 2.02215 21.1187 0.646721 22.7814 0.646721C24.4441 0.646721 25.792 2.02215 25.792 3.71879C25.792 5.41543 24.4441 6.79086 22.7814 6.79086C21.1187 6.79086 19.7708 5.41543 19.7708 3.71879Z" fill="black"/>
<path d="M29.9255 3.71879C29.9255 5.08503 31.011 6.19263 32.3499 6.19263C33.6888 6.19263 34.7742 5.08503 34.7742 3.71879C34.7742 2.35255 33.6888 1.24495 32.3499 1.24495C31.011 1.24495 29.9255 2.35255 29.9255 3.71879ZM29.6562 3.71879C29.6562 2.20072 30.8622 0.970108 32.3499 0.970108C33.8376 0.970108 35.0436 2.20072 35.0436 3.71879C35.0436 5.23685 33.8376 6.46748 32.3499 6.46748C30.8622 6.46748 29.6562 5.23685 29.6562 3.71879Z" fill="black"/>
<path d="M39.7792 3.71879C39.7792 4.9243 40.7369 5.90157 41.9184 5.90157C43.0998 5.90157 44.0575 4.9243 44.0575 3.71879C44.0575 2.51327 43.0998 1.53599 41.9184 1.53599C40.7369 1.53599 39.7792 2.51327 39.7792 3.71879ZM39.5416 3.71879C39.5416 2.37929 40.6057 1.29346 41.9184 1.29346C43.2311 1.29346 44.2952 2.37929 44.2952 3.71879C44.2952 5.05824 43.2311 6.14408 41.9184 6.14408C40.6057 6.14408 39.5416 5.05824 39.5416 3.71879Z" fill="black"/>
<path d="M49.633 3.71879C49.633 4.76351 50.463 5.61051 51.4869 5.61051C52.5107 5.61051 53.3407 4.76351 53.3407 3.71879C53.3407 2.67407 52.5107 1.82707 51.4869 1.82707C50.463 1.82707 49.633 2.67407 49.633 3.71879ZM49.427 3.71879C49.427 2.55786 50.3492 1.61684 51.4869 1.61684C52.6245 1.61684 53.5468 2.55786 53.5468 3.71879C53.5468 4.87967 52.6245 5.82074 51.4869 5.82074C50.3492 5.82074 49.427 4.87967 49.427 3.71879Z" fill="black"/>
<path d="M59.4866 3.71879C59.4866 4.6029 60.1889 5.31955 61.0553 5.31955C61.9218 5.31955 62.6241 4.6029 62.6241 3.71879C62.6241 2.83467 61.9218 2.11804 61.0553 2.11804C60.1889 2.11804 59.4866 2.83467 59.4866 3.71879ZM59.3123 3.71879C59.3123 2.73647 60.0927 1.94024 61.0553 1.94024C62.018 1.94024 62.7983 2.73647 62.7983 3.71879C62.7983 4.70111 62.018 5.49735 61.0553 5.49735C60.0927 5.49735 59.3123 4.70111 59.3123 3.71879Z" fill="black"/>
<path d="M69.3403 3.71879C69.3403 4.44207 69.915 5.02851 70.6238 5.02851C71.3326 5.02851 71.9073 4.44207 71.9073 3.71879C71.9073 2.99547 71.3326 2.40907 70.6238 2.40907C69.915 2.40907 69.3403 2.99547 69.3403 3.71879ZM69.1977 3.71879C69.1977 2.91511 69.8362 2.26362 70.6238 2.26362C71.4114 2.26362 72.0499 2.91511 72.0499 3.71879C72.0499 4.52243 71.4114 5.17397 70.6238 5.17397C69.8362 5.17397 69.1977 4.52243 69.1977 3.71879Z" fill="black"/>
<path d="M79.194 3.71879C79.194 4.28138 79.641 4.73742 80.1923 4.73742C80.7436 4.73742 81.1906 4.28138 81.1906 3.71879C81.1906 3.15619 80.7436 2.70012 80.1923 2.70012C79.641 2.70012 79.194 3.15619 79.194 3.71879ZM79.0831 3.71879C79.0831 3.09371 79.5797 2.58696 80.1923 2.58696C80.8049 2.58696 81.3015 3.09371 81.3015 3.71879C81.3015 4.34386 80.8049 4.85058 80.1923 4.85058C79.5797 4.85058 79.0831 4.34386 79.0831 3.71879Z" fill="black"/>
<path d="M89.0477 3.71879C89.0477 4.12055 89.367 4.44638 89.7608 4.44638C90.1545 4.44638 90.4738 4.12055 90.4738 3.71879C90.4738 3.31699 90.1545 2.9912 89.7608 2.9912C89.367 2.9912 89.0477 3.31699 89.0477 3.71879ZM88.9685 3.71879C88.9685 3.27229 89.3232 2.91035 89.7608 2.91035C90.1983 2.91035 90.553 3.27229 90.553 3.71879C90.553 4.16528 90.1983 4.52724 89.7608 4.52724C89.3232 4.52724 88.9685 4.16528 88.9685 3.71879Z" fill="black"/>
<path d="M20.0719 3.71879C20.0719 5.24581 21.285 6.48357 22.7814 6.48357C24.2778 6.48357 25.4909 5.24581 25.4909 3.71879C25.4909 2.19172 24.2778 0.953979 22.7814 0.953979C21.285 0.953979 20.0719 2.19172 20.0719 3.71879Z" fill="black"/>
<path d="M29.9255 3.71879C29.9255 5.08503 31.011 6.19263 32.3499 6.19263C33.6888 6.19263 34.7742 5.08503 34.7742 3.71879C34.7742 2.35255 33.6888 1.24495 32.3499 1.24495C31.011 1.24495 29.9255 2.35255 29.9255 3.71879Z" fill="black"/>
<path d="M39.7792 3.71879C39.7792 4.9243 40.7369 5.90157 41.9184 5.90157C43.0998 5.90157 44.0575 4.9243 44.0575 3.71879C44.0575 2.51327 43.0998 1.53599 41.9184 1.53599C40.7369 1.53599 39.7792 2.51327 39.7792 3.71879Z" fill="black"/>
<path d="M49.633 3.71879C49.633 4.76351 50.463 5.61051 51.4869 5.61051C52.5107 5.61051 53.3407 4.76351 53.3407 3.71879C53.3407 2.67407 52.5107 1.82707 51.4869 1.82707C50.463 1.82707 49.633 2.67407 49.633 3.71879Z" fill="black"/>
<path d="M59.4866 3.71879C59.4866 4.6029 60.1889 5.31955 61.0553 5.31955C61.9218 5.31955 62.6241 4.6029 62.6241 3.71879C62.6241 2.83467 61.9218 2.11804 61.0553 2.11804C60.1889 2.11804 59.4866 2.83467 59.4866 3.71879Z" fill="black"/>
<path d="M69.3403 3.71879C69.3403 4.44207 69.915 5.02851 70.6238 5.02851C71.3326 5.02851 71.9073 4.44207 71.9073 3.71879C71.9073 2.99547 71.3326 2.40907 70.6238 2.40907C69.915 2.40907 69.3403 2.99547 69.3403 3.71879Z" fill="black"/>
<path d="M79.194 3.71879C79.194 4.28138 79.641 4.73742 80.1923 4.73742C80.7436 4.73742 81.1906 4.28138 81.1906 3.71879C81.1906 3.15619 80.7436 2.70012 80.1923 2.70012C79.641 2.70012 79.194 3.15619 79.194 3.71879Z" fill="black"/>
<path d="M89.0477 3.71879C89.0477 4.12055 89.367 4.44638 89.7608 4.44638C90.1545 4.44638 90.4738 4.12055 90.4738 3.71879C90.4738 3.31699 90.1545 2.9912 89.7608 2.9912C89.367 2.9912 89.0477 3.31699 89.0477 3.71879Z" fill="black"/>
<path d="M10.2182 3.71879C10.2182 5.40643 11.5589 6.77472 13.2129 6.77472C14.8669 6.77472 16.2077 5.40643 16.2077 3.71879C16.2077 2.03111 14.8669 0.662827 13.2129 0.662827C11.5589 0.662827 10.2182 2.03111 10.2182 3.71879Z" fill="black"/>
<path d="M0.364425 3.71879C0.364425 5.56726 1.83297 7.06569 3.64443 7.06569C5.4559 7.06569 6.92444 5.56726 6.92444 3.71879C6.92444 1.87032 5.4559 0.371895 3.64443 0.371895C1.83297 0.371895 0.364425 1.87032 0.364425 3.71879Z" fill="black"/>
</svg>
