<svg width="100" height="100" viewBox="0 0 100 100" fill="none" xmlns="http://www.w3.org/2000/svg">
<g clip-path="url(#clip0_21_1651)">
<g clip-path="url(#clip1_21_1651)">
<g clip-path="url(#clip2_21_1651)">
<g clip-path="url(#clip3_21_1651)">
<g clip-path="url(#clip4_21_1651)">
<g clip-path="url(#clip5_21_1651)">
<g clip-path="url(#clip6_21_1651)">
<path d="M68.7141 73.0269C68.6585 73.1893 68.5524 73.3297 68.4113 73.4274C68.2701 73.5251 68.1014 73.5751 67.9298 73.57H66.2178L67.2813 68.2644C67.4086 68.516 67.5232 68.7738 67.6245 69.0369L68.7369 72.509C68.796 72.6782 68.7879 72.8636 68.7141 73.0269ZM31.2866 73.0294C31.2125 72.866 31.2037 72.6804 31.2621 72.5107L32.3619 69.0766C32.4667 68.8004 32.5858 68.5299 32.7186 68.2661L33.7821 73.57H32.07C31.9176 73.5714 31.7678 73.5308 31.6369 73.4527C31.506 73.3746 31.3991 73.262 31.3279 73.1272C31.3121 73.0955 31.2983 73.0628 31.2866 73.0294ZM42.8128 68.7966C43.0089 69.03 43.2653 69.205 43.5541 69.3026L45.9923 73.57H43.9142L42.8128 68.7966ZM45.3783 69.0951L47.5635 68.4736C48.2363 69.0671 49.1027 69.3947 49.9999 69.3947C50.8972 69.3947 51.7636 69.0671 52.4364 68.4736L54.6215 69.0951L52.0645 73.57H47.9354L45.3783 69.0951ZM56.4457 69.3026C56.6158 69.2444 56.7754 69.1595 56.9189 69.0513C57.0172 68.9763 57.1071 68.8909 57.1871 68.7966L56.0856 73.57H54.0076L56.4457 69.3026ZM53.6854 57.7536C52.6433 58.5993 51.342 59.0609 49.9999 59.0609C48.6578 59.0609 47.3566 58.5993 46.3144 57.7536C45.7072 57.256 45.1675 56.7837 44.653 56.303C44.6614 56.3873 44.6783 56.4717 44.6867 56.5476C44.777 57.292 44.8249 58.041 44.8301 58.7909L49.9999 63.227L55.1697 58.7909C55.175 58.041 55.2228 57.292 55.3131 56.5476C55.3215 56.4632 55.3384 56.3873 55.3468 56.303C54.8324 56.7837 54.2926 57.256 53.6854 57.7536ZM35.9411 64.8041C34.6086 65.774 34.4062 65.9426 34.3387 66.0101C34.2375 66.1113 34.1447 66.2294 34.0519 66.3306L35.5025 73.5666H37.9651L35.9411 64.8041ZM46.6855 65.9089L44.0964 64.3908V67.7053L46.6855 66.9715C46.6488 66.7967 46.629 66.6188 46.6265 66.4402C46.6295 66.2617 46.6492 66.0838 46.6855 65.9089ZM46.6855 65.9089L44.0964 64.3908V67.7053L46.6855 66.9715C46.6488 66.7967 46.629 66.6188 46.6265 66.4402C46.6295 66.2617 46.6492 66.0838 46.6855 65.9089ZM39.8964 63.5137C39.0759 63.5663 38.2668 63.7338 37.4929 64.0113L39.694 73.5666H42.182L39.9049 63.6824C39.8937 63.6269 39.8908 63.5701 39.8964 63.5137ZM46.6855 65.9089L44.0964 64.3908V67.7053L46.6855 66.9715C46.6488 66.7967 46.629 66.6188 46.6265 66.4402C46.6295 66.2617 46.6492 66.0838 46.6855 65.9089ZM46.6855 65.9089L44.0964 64.3908V67.7053L46.6855 66.9715C46.6488 66.7967 46.629 66.6188 46.6265 66.4402C46.6295 66.2617 46.6492 66.0838 46.6855 65.9089ZM49.9999 65.1752C49.0891 65.1752 48.3132 65.7571 48.3132 66.4402C48.3132 67.1318 49.0891 67.7053 49.9999 67.7053C50.9108 67.7053 51.6866 67.1318 51.6866 66.4402C51.6866 65.7571 50.9108 65.1752 49.9999 65.1752ZM60.1034 63.5137C60.109 63.5701 60.1062 63.6269 60.095 63.6824L57.8179 73.5666H60.3058L62.507 64.0113C61.733 63.7338 60.9239 63.5663 60.1034 63.5137ZM65.6612 66.0101C65.5937 65.9426 65.3913 65.774 64.0588 64.8041L62.0347 73.5666H64.4973L65.9479 66.3306C65.8551 66.2294 65.7624 66.1113 65.6612 66.0101ZM49.9999 65.1752C49.0891 65.1752 48.3132 65.7571 48.3132 66.4402C48.3132 67.1318 49.0891 67.7053 49.9999 67.7053C50.9108 67.7053 51.6866 67.1318 51.6866 66.4402C51.6866 65.7571 50.9108 65.1752 49.9999 65.1752ZM49.9999 65.1752C49.0891 65.1752 48.3132 65.7571 48.3132 66.4402C48.3132 67.1318 49.0891 67.7053 49.9999 67.7053C50.9108 67.7053 51.6866 67.1318 51.6866 66.4402C51.6866 65.7571 50.9108 65.1752 49.9999 65.1752ZM53.3143 65.9089C53.3506 66.0838 53.3704 66.2617 53.3734 66.4402C53.3709 66.6188 53.3511 66.7967 53.3143 66.9715L55.9035 67.7053V64.3908L53.3143 65.9089ZM49.9999 65.1752C49.0891 65.1752 48.3132 65.7571 48.3132 66.4402C48.3132 67.1318 49.0891 67.7053 49.9999 67.7053C50.9108 67.7053 51.6866 67.1318 51.6866 66.4402C51.6866 65.7571 50.9108 65.1752 49.9999 65.1752ZM49.9999 65.1752C49.0891 65.1752 48.3132 65.7571 48.3132 66.4402C48.3132 67.1318 49.0891 67.7053 49.9999 67.7053C50.9108 67.7053 51.6866 67.1318 51.6866 66.4402C51.6866 65.7571 50.9108 65.1752 49.9999 65.1752ZM46.6855 65.9089L44.0964 64.3908V67.7053L46.6855 66.9715C46.6488 66.7967 46.629 66.6188 46.6265 66.4402C46.6295 66.2617 46.6492 66.0838 46.6855 65.9089ZM55.8613 60.427L51.7626 63.9354C52.0204 64.0748 52.2586 64.2478 52.471 64.4499L55.3215 62.78C55.401 62.7291 55.4899 62.6947 55.583 62.6788C55.8267 62.6319 56.0778 62.6393 56.3183 62.7005C56.5588 62.7618 56.7829 62.8753 56.9745 63.033C57.2662 63.2711 57.4684 63.6012 57.548 63.9692L58.2227 62.7885L55.8613 60.427ZM59.96 42.8345C59.9035 42.8591 59.8439 42.8761 59.7829 42.8851C59.7382 42.9092 59.6959 42.9375 59.6564 42.9694C59.2914 44.5676 59.1299 46.2054 59.1757 47.8441C59.285 47.989 59.4094 48.1219 59.5468 48.2405C59.7492 47.8694 60.1203 46.6887 60.1203 44.049C60.1442 43.6376 60.0898 43.2255 59.96 42.8345ZM59.3781 26.5408C58.7203 26.1444 57.3793 26.8781 55.9541 27.6624C54.2083 28.6239 52.2264 29.7118 49.9999 29.7118C40.2844 29.7118 39.0362 33.0937 39.0362 36.037C39.0324 36.421 39.0606 36.8047 39.1206 37.184C39.2831 38.4051 39.7028 39.5779 40.3519 40.6249L44.1892 35.725C44.3658 35.4749 44.5914 35.2633 44.8523 35.1032C45.1133 34.9431 45.4041 34.8377 45.707 34.7936C46.01 34.7494 46.3187 34.7673 46.6145 34.8462C46.9104 34.9252 47.187 35.0634 47.4277 35.2527C48.164 35.818 49.066 36.1251 49.9943 36.1267C50.9226 36.1282 51.8256 35.824 52.5637 35.2611C52.8041 35.0701 53.0809 34.9301 53.3772 34.8497C53.6736 34.7694 53.9832 34.7503 54.2871 34.7937C54.5911 34.8372 54.8829 34.9422 55.1449 35.1023C55.4069 35.2624 55.6334 35.4743 55.8107 35.725L59.4287 40.3466L59.8167 40.355C60.5661 39.0392 60.9613 37.5513 60.9636 36.037C60.9636 28.9612 60.1034 26.9624 59.3781 26.5408ZM40.3434 42.9779C40.2934 42.9366 40.2398 42.8999 40.1832 42.8682C40.1347 42.8601 40.0868 42.8488 40.0398 42.8345C39.9091 43.2253 39.8547 43.6376 39.8796 44.049C39.8796 46.6887 40.2507 47.8694 40.4531 48.2405C40.5905 48.1219 40.7148 47.989 40.8241 47.8441C40.87 46.2082 40.7084 44.5732 40.3434 42.9779ZM54.4866 36.7707C54.4425 36.6983 54.3838 36.6357 54.3143 36.5871C54.2447 36.5384 54.1659 36.5047 54.0827 36.4881C53.9995 36.4714 53.9137 36.4722 53.8308 36.4904C53.7479 36.5086 53.6697 36.5437 53.6011 36.5936C52.5692 37.3846 51.3057 37.814 50.0056 37.8156C48.7054 37.8171 47.4409 37.3907 46.4072 36.6021C46.3388 36.5505 46.2604 36.5137 46.177 36.4942C46.0936 36.4747 46.0071 36.4728 45.9229 36.4887C45.8388 36.5046 45.7588 36.5379 45.6883 36.5864C45.6177 36.635 45.5581 36.6978 45.5132 36.7707L41.7518 41.5779C41.7603 41.6116 41.7687 41.6538 41.7771 41.696C41.7856 41.7361 41.7969 41.7755 41.8109 41.814V41.8393C42.4695 44.2833 42.681 46.8261 42.435 49.3453C42.4181 49.5139 42.4097 49.6995 42.4097 49.885C42.4097 51.5211 44.1723 53.8488 47.3771 56.4379C48.1179 57.0406 49.0434 57.3704 49.9984 57.3719C50.9535 57.3734 51.88 57.0467 52.6228 56.4464C55.8276 53.8488 57.5902 51.5211 57.5902 49.885C57.5902 49.6995 57.5818 49.5139 57.5649 49.3284C57.33 46.8907 57.5212 44.4307 58.1299 42.0586C58.1384 42.0333 58.1468 41.9827 58.1637 41.9321L58.2058 41.7803C58.2227 41.7128 58.2311 41.6454 58.248 41.5695L54.4866 36.7707ZM49.1566 49.1091H50.8433C51.067 49.1091 51.2815 49.198 51.4396 49.3561C51.5978 49.5143 51.6866 49.7288 51.6866 49.9525C51.6866 50.1762 51.5978 50.3907 51.4396 50.5488C51.2815 50.707 51.067 50.7958 50.8433 50.7958H49.1566C48.9329 50.7958 48.7184 50.707 48.5602 50.5488C48.4021 50.3907 48.3132 50.1762 48.3132 49.9525C48.3132 49.7288 48.4021 49.5143 48.5602 49.3561C48.7184 49.198 48.9329 49.1091 49.1566 49.1091ZM46.6265 44.8923V45.7357C46.6265 45.9594 46.5376 46.1739 46.3795 46.332C46.2213 46.4902 46.0068 46.579 45.7831 46.579C45.5594 46.579 45.3449 46.4902 45.1868 46.332C45.0286 46.1739 44.9398 45.9594 44.9398 45.7357V44.8923H44.0964C43.8727 44.8923 43.6582 44.8035 43.5 44.6453C43.3419 44.4871 43.253 44.2726 43.253 44.049C43.253 43.8253 43.3419 43.6108 43.5 43.4526C43.6582 43.2944 43.8727 43.2056 44.0964 43.2056H47.4698C47.6935 43.2056 47.908 43.2944 48.0662 43.4526C48.2243 43.6108 48.3132 43.8253 48.3132 44.049C48.3132 44.2726 48.2243 44.4871 48.0662 44.6453C47.908 44.8035 47.6935 44.8923 47.4698 44.8923H46.6265ZM51.6866 54.1693H48.3132C48.0895 54.1693 47.875 54.0804 47.7169 53.9223C47.5587 53.7641 47.4698 53.5496 47.4698 53.3259C47.4698 53.1023 47.5587 52.8878 47.7169 52.7296C47.875 52.5714 48.0895 52.4826 48.3132 52.4826H51.6866C51.9103 52.4826 52.1248 52.5714 52.283 52.7296C52.4412 52.8878 52.53 53.1023 52.53 53.3259C52.53 53.5496 52.4412 53.7641 52.283 53.9223C52.1248 54.0804 51.9103 54.1693 51.6866 54.1693ZM55.9035 44.8923H55.0601V45.7357C55.0601 45.9594 54.9712 46.1739 54.8131 46.332C54.6549 46.4902 54.4404 46.579 54.2167 46.579C53.9931 46.579 53.7785 46.4902 53.6204 46.332C53.4622 46.1739 53.3734 45.9594 53.3734 45.7357V44.8923H52.53C52.3063 44.8923 52.0918 44.8035 51.9337 44.6453C51.7755 44.4871 51.6866 44.2726 51.6866 44.049C51.6866 43.8253 51.7755 43.6108 51.9337 43.4526C52.0918 43.2944 52.3063 43.2056 52.53 43.2056H55.9035C56.1271 43.2056 56.3416 43.2944 56.4998 43.4526C56.658 43.6108 56.7468 43.8253 56.7468 44.049C56.7468 44.2726 56.658 44.4871 56.4998 44.6453C56.3416 44.8035 56.1271 44.8923 55.9035 44.8923ZM44.1386 60.427L41.7771 62.7885L42.4518 63.9692C42.5467 63.5405 42.8052 63.1657 43.1722 62.9247C43.5392 62.6837 43.9858 62.5955 44.4169 62.6788C44.5099 62.6947 44.5988 62.7291 44.6783 62.78L47.5289 64.4499C47.7412 64.2478 47.9794 64.0748 48.2373 63.9354L44.1386 60.427Z" fill="black"/>
</g>
</g>
<path d="M8.49144 36.42L7.61894 39.1446L1.18073 37.0825L2.01394 34.4803C2.22894 33.8093 2.53465 33.3739 2.93144 33.1736C3.32894 32.9711 3.79644 32.9557 4.33394 33.1278C4.5818 33.2071 4.79037 33.3128 4.95965 33.4443C5.12644 33.575 5.25251 33.725 5.33751 33.8939C5.41965 34.0646 5.45358 34.2521 5.43965 34.4564C5.51644 34.3289 5.61608 34.2114 5.73822 34.1036C5.85822 33.995 6.00073 33.9118 6.16608 33.8539C6.33144 33.7961 6.51358 33.7668 6.71251 33.7661C6.90894 33.7646 7.12287 33.8007 7.3543 33.875C7.78215 34.0121 8.10323 34.1961 8.31787 34.4271C8.53037 34.6575 8.64715 34.94 8.66894 35.2743C8.6893 35.6057 8.63001 35.9875 8.49144 36.42ZM5.39251 36.7768L6.75644 37.2136L7.13394 36.0353C7.17501 35.9068 7.18323 35.7893 7.15787 35.6832C7.13501 35.5778 7.08073 35.4857 6.99501 35.4071C6.90715 35.3275 6.78608 35.2628 6.6318 35.2132C6.49144 35.1682 6.3643 35.1546 6.25037 35.1725C6.13644 35.19 6.03894 35.2336 5.95715 35.3028C5.87323 35.3714 5.81073 35.47 5.76965 35.5982L5.39251 36.7768ZM3.00787 36.0128L4.25608 36.4128L4.60894 35.3118C4.6568 35.1621 4.63465 35.0261 4.54251 34.9036C4.45251 34.7821 4.31751 34.6925 4.13751 34.6346C3.90144 34.5589 3.72215 34.5557 3.5993 34.6246C3.47894 34.6943 3.39858 34.7925 3.35823 34.9189L3.00787 36.0128Z" fill="black"/>
<path d="M10.1814 32.2793L9.45715 33.7286L4.32965 28.8657L5.20822 27.1068L12.1761 28.2871L11.4468 29.7464L10.1922 29.5064L9.23251 31.4268L10.1814 32.2793ZM5.97287 28.6L8.13394 30.4704L8.76751 29.2021L5.97287 28.6Z" fill="black"/>
<path d="M13.6436 26.1171L12.7489 27.4146L7.18286 23.5775L8.79643 21.2371C8.95822 21.0028 9.13643 20.8068 9.33179 20.6489C9.52358 20.4918 9.73893 20.3871 9.97822 20.3343C10.2175 20.2814 10.4836 20.2953 10.7771 20.3753C11.0686 20.4543 11.3943 20.6175 11.7543 20.8653C11.9989 21.0339 12.1925 21.2003 12.3357 21.365C12.4768 21.5278 12.5796 21.6882 12.6439 21.8457C12.7096 22.0014 12.7464 22.1532 12.7543 22.3018C12.7621 22.4503 12.7582 22.5968 12.7421 22.7407L15.6186 23.2525L14.7093 24.5714L12.155 24.04C12.12 24.0903 12.08 24.1464 12.035 24.2078C11.9879 24.2678 11.9439 24.3268 11.9036 24.3853C11.8618 24.4461 11.8193 24.5075 11.7761 24.5703C11.7329 24.6328 11.6925 24.6918 11.6546 24.7461L13.6436 26.1171ZM9.24179 23.0825L10.63 24.0396L11.1882 23.2303C11.2511 23.1393 11.2939 23.0511 11.3168 22.9657C11.3432 22.8796 11.3457 22.7918 11.3239 22.7025C11.2989 22.6136 11.2507 22.5253 11.18 22.4375C11.1057 22.3507 11.0021 22.2611 10.8686 22.1693C10.7332 22.0761 10.6125 22.0107 10.5071 21.9736C10.4021 21.94 10.3096 21.9314 10.2296 21.9478C10.1464 21.965 10.0693 22.0011 9.99822 22.0564C9.92858 22.1096 9.8625 22.1821 9.79965 22.2732L9.24179 23.0825Z" fill="black"/>
<path d="M18.3171 20.3111L16.3814 22.4179L11.4029 17.8443L13.2514 15.8321C13.7282 15.3132 14.1886 15.0461 14.6325 15.0311C15.0782 15.0139 15.5089 15.1964 15.9246 15.5782C16.1164 15.7543 16.2614 15.9375 16.36 16.1279C16.4568 16.3168 16.5082 16.5057 16.5143 16.6946C16.5171 16.8839 16.4693 17.0682 16.3707 17.2482C16.4939 17.1646 16.6336 17.0996 16.79 17.0532C16.9443 17.005 17.1086 16.9893 17.2832 17.0061C17.4575 17.0229 17.6354 17.0729 17.8161 17.1554C17.995 17.2364 18.1739 17.3589 18.3529 17.5236C18.6836 17.8275 18.8979 18.1293 18.9957 18.4293C19.0918 18.7275 19.0796 19.0329 18.9589 19.3457C18.8382 19.655 18.6243 19.9768 18.3171 20.3111ZM15.3543 19.3343L16.4093 20.3032L17.2461 19.3921C17.3375 19.2929 17.3939 19.1896 17.4154 19.0829C17.4386 18.9775 17.4282 18.8711 17.3836 18.7636C17.3371 18.6543 17.2543 18.545 17.1354 18.4354C17.0268 18.3357 16.9171 18.27 16.8064 18.2382C16.6957 18.2064 16.5886 18.205 16.4857 18.2336C16.3807 18.2607 16.2829 18.3239 16.1914 18.4232L15.3543 19.3343ZM13.5104 17.6404L14.4757 18.5271L15.2579 17.6757C15.3643 17.56 15.4011 17.4271 15.3689 17.2775C15.3382 17.1293 15.2536 16.9914 15.1139 16.8636C14.9314 16.6957 14.77 16.6175 14.63 16.6286C14.4914 16.6414 14.3775 16.6968 14.2875 16.7943L13.5104 17.6404Z" fill="black"/>
<path d="M22.0572 16.9114C21.9454 17.0036 21.8039 17.1 21.6318 17.2004C21.4597 17.3043 21.2718 17.3754 21.0675 17.4136C20.8632 17.4518 20.6475 17.4293 20.42 17.3464C20.1943 17.2621 19.9675 17.0818 19.7393 16.8057L17.425 14.0036C17.2232 13.7593 17.0939 13.5239 17.0372 13.2971C16.9786 13.0682 16.9718 12.8593 17.0157 12.67C17.06 12.4807 17.1404 12.3043 17.2572 12.1411C17.3722 11.9761 17.5 11.8354 17.6397 11.72C18.0143 11.4104 18.3454 11.1482 18.6329 10.9332C18.9186 10.7164 19.1718 10.5279 19.3929 10.3671C19.6175 10.2071 19.8193 10.0643 19.9986 9.93857L20.8454 10.9632L18.9347 12.5414C18.8079 12.6461 18.7336 12.7568 18.7122 12.8736C18.6907 12.99 18.7322 13.1118 18.8368 13.2386L19.3129 13.8146L21.3364 12.2579L22.1268 13.2146L20.2111 14.9021L20.6636 15.45C20.7497 15.5539 20.8322 15.6211 20.9111 15.6514C20.9936 15.6818 21.0739 15.6886 21.1525 15.6718C21.2329 15.6532 21.3061 15.6168 21.3722 15.5618L23.3168 13.9557L24.1586 14.9746C23.9711 15.1679 23.7582 15.3786 23.5204 15.6071C23.2843 15.8339 23.0389 16.0589 22.7839 16.2825C22.5293 16.5025 22.2872 16.7121 22.0572 16.9114Z" fill="black"/>
<path d="M26.3168 13.7621L24.9272 14.595L23.2172 7.73821L24.9036 6.72714L30.1447 11.4679L28.7457 12.3064L27.8164 11.4293L25.975 12.5329L26.3168 13.7621ZM24.7457 8.3975L25.5629 11.1361L26.7786 10.4071L24.7457 8.3975Z" fill="black"/>
<path d="M32.5486 10.4264L31.0968 11.0396L28.4657 4.81214L31.0843 3.70607C31.3464 3.59536 31.6025 3.52572 31.8514 3.4975C32.0975 3.46822 32.3357 3.49536 32.5657 3.57964C32.7957 3.66357 33.0129 3.81822 33.2175 4.04357C33.4211 4.26679 33.6079 4.57964 33.7779 4.98214C33.8936 5.25572 33.9675 5.50036 34 5.71572C34.0314 5.92893 34.0318 6.11929 34.0014 6.28679C33.9732 6.45322 33.9225 6.60143 33.8493 6.73072C33.7761 6.86036 33.6939 6.98143 33.6032 7.09464L35.7536 9.07214L34.2782 9.69536L32.4097 7.87464C32.3532 7.89857 32.2893 7.92429 32.2182 7.95143C32.1461 7.97643 32.0775 8.00286 32.0118 8.03072C31.9439 8.05929 31.875 8.08857 31.805 8.11822C31.735 8.14786 31.6693 8.17572 31.6082 8.20143L32.5486 10.4264ZM30.4675 5.50143L31.1239 7.055L32.0297 6.67214C32.1314 6.62929 32.215 6.57786 32.2804 6.51822C32.3489 6.46 32.3982 6.38714 32.4279 6.3C32.4543 6.21143 32.4614 6.11143 32.4489 5.99929C32.4332 5.88607 32.3936 5.755 32.3304 5.60572C32.2664 5.45429 32.1997 5.33429 32.1307 5.24643C32.0604 5.16179 31.9868 5.10464 31.9107 5.07572C31.8314 5.04536 31.7468 5.03429 31.6572 5.04286C31.5697 5.05036 31.475 5.07572 31.3732 5.11857L30.4675 5.50143Z" fill="black"/>
<path d="M38.4325 8.27535L36.9254 8.7357L34.9507 2.26999L36.4582 1.80963L38.4325 8.27535Z" fill="black"/>
<path d="M41.08 7.73571L39.4846 8.01678L40.3389 1.00178L42.2754 0.660706L45.4754 6.96178L43.8689 7.24463L43.3146 6.09356L41.2004 6.46606L41.08 7.73571ZM41.5307 2.16428L41.3146 5.01392L42.7111 4.76785L41.5307 2.16428Z" fill="black"/>
<path d="M52.965 6.9275L51.0004 6.84286L49.235 0L50.8647 0.0703571L52.0636 5.18214L53.7011 0.1925L55.3122 0.261786L52.965 6.9275Z" fill="black"/>
<path d="M56.8786 7.36249L55.2868 7.06035L58.5696 0.80249L60.5014 1.16928L61.2629 8.19499L59.6604 7.8907L59.5496 6.61785L57.4407 6.21749L56.8786 7.36249ZM59.2729 2.31142L58.0618 4.89999L59.4547 5.16428L59.2729 2.31142Z" fill="black"/>
<path d="M63.755 9.0275L62.2722 8.51607L64.4761 2.125L65.6561 2.53179L66.7697 7.24286L68.1032 3.37571L69.5932 3.88929L67.3893 10.2804L66.1989 9.87L65.085 5.17036L63.755 9.0275Z" fill="black"/>
<path d="M70.3039 11.8446C69.9329 11.6486 69.6686 11.4132 69.5107 11.1382C69.3554 10.8646 69.2832 10.5571 69.2943 10.2161C69.3054 9.87463 69.3814 9.50713 69.5232 9.11249C69.6639 8.71499 69.8489 8.29892 70.0779 7.86499C70.3254 7.39606 70.5789 6.98999 70.8382 6.64642C71.0996 6.30428 71.3804 6.04321 71.6807 5.86321C71.9825 5.68106 72.3204 5.59856 72.6943 5.61571C73.0675 5.62964 73.4904 5.76142 73.9636 6.01142C74.2589 6.16749 74.5139 6.31749 74.7296 6.46142C74.945 6.60571 75.1421 6.75285 75.3207 6.90285C75.4975 7.05178 75.6768 7.20892 75.8589 7.37464L75.2896 8.45214C75.1782 8.37392 75.0361 8.27785 74.8629 8.16428C74.6886 8.05285 74.4907 7.93035 74.27 7.79714C74.0489 7.66356 73.8125 7.53071 73.5607 7.39749C73.2371 7.22678 72.9661 7.15142 72.7471 7.17178C72.525 7.19321 72.3182 7.32142 72.1275 7.55642C71.9346 7.79035 71.7161 8.13856 71.4714 8.60106C71.2821 8.95928 71.1432 9.25928 71.0546 9.50106C70.9636 9.74178 70.9196 9.94321 70.9225 10.1057C70.9243 10.2703 70.9711 10.4075 71.0632 10.5175C71.1529 10.6261 71.2782 10.7228 71.4389 10.8075C71.6471 10.9175 71.8464 11.0061 72.0357 11.0728C72.2243 11.1364 72.3764 11.1821 72.4921 11.2096L72.9943 10.2589L72.0536 9.76213L72.6364 8.65821C72.7618 8.70499 72.9064 8.76464 73.0707 8.83749C73.235 8.91035 73.4071 8.98892 73.5875 9.07321C73.7657 9.15642 73.9275 9.23606 74.0729 9.31285C74.2596 9.41142 74.4232 9.50071 74.5643 9.58071C74.7064 9.65856 74.8332 9.73392 74.9446 9.80678L73.1114 13.2775L72.0632 12.7239L72.0907 12.2221C71.8993 12.2375 71.6379 12.2228 71.3061 12.1782C70.9764 12.1346 70.6425 12.0236 70.3039 11.8446Z" fill="black"/>
<path d="M76.3804 15.6893C76.0782 15.4664 75.8139 15.235 75.5882 14.9954C75.3618 14.7521 75.1979 14.4907 75.0961 14.2114C74.9943 13.9318 74.9754 13.6329 75.0393 13.3139C75.1036 12.9954 75.2725 12.6504 75.5468 12.2789L78.2504 8.61322L79.5186 9.54858L76.8193 13.2086C76.6996 13.3707 76.6393 13.5271 76.6375 13.6782C76.6343 13.8314 76.6832 13.9804 76.7839 14.125C76.8832 14.2714 77.0279 14.4146 77.2175 14.5543C77.4032 14.6914 77.5807 14.7857 77.75 14.8375C77.92 14.8925 78.0764 14.8954 78.22 14.8454C78.3639 14.7989 78.4957 14.695 78.615 14.5329L81.3143 10.8732L82.5825 11.8086L79.8789 15.4743C79.605 15.8457 79.3264 16.11 79.0429 16.2668C78.7575 16.4221 78.465 16.4918 78.1661 16.4757C77.8689 16.4611 77.5729 16.3829 77.2775 16.2411C76.9836 16.0975 76.6846 15.9136 76.3804 15.6893Z" fill="black"/>
<path d="M80.1732 18.8453L79.0314 17.6957L85.2789 14.3925L86.6643 15.7875L83.3182 22.0118L82.1686 20.8546L82.7971 19.7421L81.2846 18.2189L80.1732 18.8453ZM85.005 16.0343L82.5421 17.4839L83.5411 18.49L85.005 16.0343Z" fill="black"/>
<path d="M84.9039 24.0961L83.9611 22.8332L89.3775 18.7878L91.0786 21.0653C91.2489 21.2936 91.3775 21.5253 91.4643 21.7607C91.5518 21.9925 91.5822 22.2303 91.5557 22.4739C91.5293 22.7175 91.4311 22.9653 91.2611 23.2178C91.0932 23.4689 90.8343 23.725 90.4843 23.9864C90.2464 24.1643 90.0264 24.2946 89.825 24.3778C89.6254 24.4593 89.4407 24.5053 89.2711 24.5157C89.1025 24.5282 88.9468 24.5143 88.8032 24.4743C88.66 24.4343 88.5225 24.3836 88.3911 24.3225L86.9861 26.8839L86.0275 25.6007L87.3482 23.3503C87.3114 23.3011 87.2714 23.2453 87.2279 23.1832C87.1864 23.1193 87.1443 23.0589 87.1014 23.0018C87.0575 22.9428 87.0125 22.8828 86.9672 22.8218C86.9214 22.7607 86.8789 22.7039 86.8393 22.6507L84.9039 24.0961ZM89.1875 20.8968L87.8364 21.9057L88.4247 22.6936C88.4907 22.7821 88.5607 22.8511 88.6343 22.9003C88.7075 22.9532 88.7897 22.9836 88.8814 22.9914C88.9736 22.9961 89.0729 22.9789 89.1782 22.9396C89.2843 22.8971 89.4022 22.8275 89.5322 22.7303C89.6639 22.6318 89.7643 22.5386 89.8332 22.4503C89.8986 22.3618 89.9364 22.2768 89.9464 22.1957C89.9568 22.1114 89.9472 22.0264 89.9175 21.9418C89.8893 21.8589 89.8422 21.7728 89.7761 21.6843L89.1875 20.8968Z" fill="black"/>
<path d="M88.9225 30.4346L87.5261 27.8661L93.4654 24.6368L94.8622 27.2054C95.0907 27.6261 95.2029 28.0121 95.1982 28.3636C95.1961 28.7139 95.105 29.0429 94.9257 29.35C94.7471 29.6539 94.4929 29.9361 94.1625 30.1968C93.8354 30.4586 93.4582 30.7054 93.0311 30.9379C92.3496 31.3082 91.7489 31.5343 91.2289 31.6157C90.71 31.6993 90.2611 31.6418 89.8818 31.4429C89.5004 31.245 89.1807 30.9089 88.9225 30.4346ZM92.9761 26.6968L89.5179 28.5771L90.0879 29.625C90.2064 29.8428 90.3614 29.9818 90.5536 30.0425C90.7447 30.1007 90.9836 30.0882 91.2707 30.0046C91.5579 29.9211 91.8954 29.7739 92.2836 29.5629C92.6525 29.3625 92.94 29.1793 93.1464 29.0143C93.3561 28.85 93.4996 28.6978 93.5771 28.5578C93.6568 28.4168 93.6907 28.2811 93.6786 28.1507C93.6654 28.0182 93.6211 27.8828 93.5461 27.745L92.9761 26.6968Z" fill="black"/>
<path d="M90.8764 34.7693L90.3343 33.2425L97.3936 32.9196L98.0518 34.7729L92.3696 38.9746L91.8239 37.4375L92.8668 36.6996L92.1486 34.6768L90.8764 34.7693ZM96.4454 34.2879L93.5996 34.5486L94.0739 35.8843L96.4454 34.2879Z" fill="black"/>
<path d="M3.82464 67.0218L2.95178 64.2971L9.39 62.235L10.2236 64.8368C10.4386 65.5078 10.4429 66.04 10.2361 66.4336C10.0304 66.8293 9.65857 67.1136 9.12107 67.2857C8.87321 67.365 8.64214 67.4003 8.42821 67.3914C8.21643 67.3818 8.02678 67.3332 7.85928 67.245C7.69357 67.1539 7.55678 67.0211 7.44928 66.8468C7.46071 66.9953 7.44821 67.1489 7.41143 67.3075C7.37678 67.4653 7.30928 67.6161 7.20821 67.7589C7.10714 67.9021 6.97607 68.0318 6.81464 68.1482C6.65571 68.2636 6.46035 68.3582 6.22892 68.4321C5.80107 68.5693 5.43285 68.6061 5.12357 68.5428C4.81678 68.4786 4.5575 68.3168 4.34571 68.0571C4.13678 67.7993 3.96321 67.4539 3.82464 67.0218ZM6.13964 64.9307L4.77571 65.3678L5.15321 66.5461C5.19428 66.6746 5.25607 66.7746 5.33821 66.8464C5.41821 66.9189 5.51571 66.9621 5.63107 66.9768C5.74893 66.9907 5.885 66.9728 6.03928 66.9232C6.17964 66.8782 6.29107 66.8157 6.37357 66.735C6.45607 66.6543 6.51035 66.5625 6.53643 66.4586C6.565 66.3539 6.55857 66.2375 6.51714 66.1089L6.13964 64.9307ZM8.52428 64.1671L7.27607 64.5668L7.62857 65.6678C7.67643 65.8175 7.77357 65.9153 7.91964 65.9614C8.06357 66.0082 8.22535 66.0028 8.40571 65.945C8.64178 65.8693 8.78964 65.7678 8.84928 65.6403C8.90678 65.5136 8.915 65.3871 8.87464 65.2611L8.52428 64.1671Z" fill="black"/>
<path d="M5.7975 71.8579L5.07321 70.4086L12.0411 69.2282L12.9196 70.9871L7.79214 75.85L7.06321 74.3907L8.00857 73.5314L7.04893 71.6111L5.7975 71.8579ZM11.2664 70.7018L8.47357 71.3068L9.10714 72.575L11.2664 70.7018Z" fill="black"/>
<path d="M9.60894 78.6111L8.71429 77.3136L14.28 73.4764L15.8936 75.8164C16.0554 76.0507 16.175 76.2871 16.2529 76.5261C16.3314 76.7611 16.3529 76.9996 16.3175 77.2418C16.2818 77.4839 16.1743 77.7282 15.9947 77.9743C15.8175 78.2189 15.5489 78.465 15.1893 78.7129C14.9447 78.8814 14.7204 79.0036 14.5157 79.0789C14.3132 79.1529 14.1272 79.1918 13.9568 79.1961C13.7879 79.2021 13.6329 79.1825 13.4911 79.1368C13.3493 79.0914 13.2139 79.0357 13.085 78.9696L11.5839 81.4761L10.6747 80.1571L12.0797 77.9586C12.0447 77.9082 12.0068 77.8507 11.9657 77.7868C11.9264 77.7214 11.8868 77.6593 11.8461 77.6007C11.8043 77.54 11.7618 77.4786 11.7186 77.4161C11.6754 77.3536 11.635 77.2946 11.5975 77.24L9.60894 78.6111ZM14.0107 75.5764L12.6222 76.5336L13.1804 77.3429C13.2432 77.4339 13.3104 77.5054 13.3818 77.5575C13.4529 77.6129 13.5339 77.6464 13.6254 77.6579C13.7175 77.6661 13.8168 77.6525 13.9239 77.6175C14.0314 77.5789 14.1522 77.5139 14.2857 77.4218C14.4211 77.3286 14.525 77.2389 14.5968 77.1532C14.6657 77.0671 14.7064 76.9836 14.7197 76.9032C14.7332 76.8193 14.7268 76.7343 14.7004 76.6482C14.6754 76.5643 14.6314 76.4768 14.5686 76.3857L14.0107 75.5764Z" fill="black"/>
<path d="M14.7082 84.9511L12.7725 82.8443L17.7511 78.2707L19.5997 80.2825C20.0765 80.8014 20.3036 81.2825 20.2811 81.7264C20.2604 82.1721 20.0422 82.5857 19.6265 82.9679C19.4347 83.1439 19.24 83.2729 19.0422 83.355C18.8461 83.4354 18.6532 83.4707 18.4643 83.4607C18.2754 83.4475 18.0957 83.3843 17.925 83.2711C17.9975 83.4011 18.0507 83.5457 18.084 83.7054C18.1189 83.8632 18.1207 84.0282 18.0889 84.2007C18.0572 84.3732 17.9925 84.5457 17.895 84.7186C17.7993 84.89 17.6618 85.0579 17.4825 85.2225C17.1518 85.5264 16.8329 85.7143 16.5257 85.7864C16.2204 85.8568 15.9172 85.8189 15.6157 85.6725C15.3179 85.5261 15.0154 85.2857 14.7082 84.9511ZM15.9322 82.0818L14.8775 83.0507L15.7143 83.9618C15.8057 84.0611 15.9036 84.1261 16.0086 84.1568C16.1115 84.1889 16.2182 84.1875 16.3293 84.1522C16.4422 84.1154 16.5582 84.0418 16.6772 83.9321C16.7857 83.8325 16.8604 83.7289 16.9015 83.6211C16.9425 83.5132 16.9532 83.4068 16.9332 83.3021C16.915 83.1954 16.8604 83.0922 16.7693 82.9929L15.9322 82.0818ZM17.7761 80.3879L16.8107 81.2746L17.5929 82.1261C17.6993 82.2418 17.8282 82.2896 17.9804 82.27C18.1304 82.2521 18.2754 82.1793 18.4143 82.0514C18.5968 81.8836 18.6886 81.7296 18.6893 81.5886C18.6882 81.4496 18.6429 81.3311 18.5532 81.2336L17.7761 80.3879Z" fill="black"/>
<path d="M18.8657 88.8989C18.7539 88.8068 18.6325 88.6857 18.5018 88.5361C18.3672 88.3868 18.2622 88.2153 18.1861 88.0221C18.11 87.8289 18.0914 87.6128 18.1293 87.3736C18.1693 87.1361 18.3036 86.8793 18.5318 86.6028L20.8464 83.8007C21.0482 83.5564 21.255 83.385 21.4672 83.2868C21.6807 83.1861 21.8847 83.1396 22.0789 83.1471C22.2732 83.1546 22.4614 83.2003 22.6439 83.2843C22.8279 83.3661 22.9897 83.465 23.1297 83.5807C23.5043 83.8903 23.8243 84.1657 24.09 84.4071C24.3568 84.6468 24.59 84.86 24.7889 85.0468C24.9886 85.2371 25.1668 85.4082 25.3247 85.5607L24.4779 86.5857L22.5675 85.0075C22.4407 84.9028 22.3182 84.8507 22.1993 84.8514C22.0807 84.8521 21.9693 84.9161 21.8647 85.0428L21.3886 85.6193L23.2997 87.3125L22.5093 88.2693L20.4904 86.7064L20.0379 87.2546C19.9518 87.3586 19.9014 87.4525 19.8868 87.5357C19.8725 87.6225 19.8811 87.7028 19.9122 87.7764C19.9454 87.8518 19.9954 87.9168 20.0618 87.9714L22.0064 89.5778L21.1643 90.5971C20.9393 90.4493 20.6922 90.2803 20.4229 90.0896C20.1554 89.9007 19.8882 89.7021 19.6207 89.4939C19.3568 89.2853 19.105 89.0871 18.8657 88.8989Z" fill="black"/>
<path d="M23.7975 92.3882L22.4079 91.5554L27.6489 86.8146L29.3354 87.8257L27.6254 94.6825L26.2261 93.8439L26.5614 92.6111L24.7204 91.5075L23.7975 92.3882ZM27.7879 88.4736L25.7579 90.4854L26.9739 91.2139L27.7879 88.4736Z" fill="black"/>
<path d="M30.6411 96.0346L29.1893 95.4214L31.8204 89.1939L34.4389 90.3C34.7011 90.4107 34.9293 90.5457 35.1232 90.705C35.3157 90.8611 35.4622 91.0507 35.5625 91.2743C35.6625 91.4979 35.7032 91.7614 35.6839 92.0654C35.6657 92.3668 35.5718 92.7189 35.4018 93.1211C35.2861 93.3946 35.1625 93.6182 35.0304 93.7918C34.8993 93.9629 34.7632 94.0961 34.6222 94.1907C34.4832 94.2864 34.3414 94.3532 34.1975 94.3914C34.0536 94.4293 33.9097 94.455 33.7654 94.4686L33.8464 97.3889L32.3711 96.7654L32.3739 94.1564C32.3175 94.1325 32.2547 94.1046 32.1854 94.0729C32.1172 94.0386 32.0504 94.0079 31.985 93.98C31.9172 93.9514 31.8482 93.9221 31.7779 93.8929C31.7079 93.8632 31.6422 93.8354 31.5814 93.8096L30.6411 96.0346ZM32.7222 91.1096L32.0657 92.6632L32.9714 93.0457C33.0732 93.0886 33.1682 93.1128 33.2564 93.1182C33.3461 93.1268 33.4325 93.1114 33.5157 93.0718C33.5979 93.0293 33.6743 92.9643 33.7461 92.8775C33.8161 92.7871 33.8829 92.6675 33.9457 92.5182C34.0097 92.3668 34.0493 92.2354 34.0639 92.1243C34.0757 92.0146 34.0654 91.9225 34.0332 91.8475C33.9997 91.7693 33.9486 91.7011 33.8797 91.6429C33.8132 91.5854 33.7293 91.5354 33.6275 91.4921L32.7222 91.1096Z" fill="black"/>
<path d="M37.0014 98.3582L35.4939 97.8979L37.4686 91.4321L38.9757 91.8925L37.0014 98.3582Z" fill="black"/>
<path d="M40.23 99.0371L38.6343 98.7561L41.8343 92.4554L43.7707 92.7964L44.625 99.8114L43.0186 99.5282L42.8911 98.2571L40.7771 97.8846L40.23 99.0371ZM42.5571 93.9546L41.3807 96.5589L42.7768 96.805L42.5571 93.9546Z" fill="black"/>
<path d="M53.1757 99.9154L51.2114 100L48.8639 93.3343L50.4936 93.2643L52.1275 98.2539L53.33 93.1421L54.9414 93.0725L53.1757 99.9154Z" fill="black"/>
<path d="M57.7925 99.3986L56.2007 99.7011L56.9621 92.675L58.8939 92.3086L62.1768 98.5664L60.5743 98.8707L60.005 97.7268L57.8957 98.1271L57.7925 99.3986ZM58.1693 93.8214L57.9911 96.6739L59.3839 96.4093L58.1693 93.8214Z" fill="black"/>
<path d="M65.3525 97.5521L63.8697 98.0636L61.6661 91.6725L62.8461 91.2654L66.6268 94.2893L65.2932 90.4218L66.7832 89.9079L68.9868 96.2993L67.7964 96.7096L64.0225 93.6954L65.3525 97.5521Z" fill="black"/>
<path d="M72.6339 94.5136C72.2629 94.7096 71.9193 94.7953 71.6036 94.7703C71.29 94.7443 70.9954 94.6307 70.7196 94.4296C70.4439 94.2282 70.1832 93.9578 69.9375 93.6186C69.6882 93.2782 69.4489 92.8911 69.2196 92.4568C68.9721 91.9878 68.7793 91.5496 68.6418 91.1421C68.5064 90.7332 68.4489 90.3543 68.47 90.0043C68.4896 89.6525 68.6118 89.3268 68.8368 89.0278C69.0586 88.7275 69.4061 88.4525 69.8793 88.2021C70.1746 88.0461 70.4425 87.92 70.6829 87.8236C70.9232 87.7271 71.1561 87.6471 71.3807 87.5839C71.6032 87.5218 71.8343 87.4625 72.0736 87.4057L72.6429 88.4832C72.5154 88.5311 72.3561 88.5946 72.1643 88.6736C71.9739 88.7546 71.7614 88.8489 71.5268 88.9561C71.2921 89.0636 71.0486 89.1836 70.7968 89.3168C70.4732 89.4875 70.2582 89.6693 70.1518 89.8614C70.0443 90.0571 70.0336 90.3 70.1204 90.5903C70.2046 90.8818 70.3693 91.2586 70.6132 91.7207C70.8025 92.0789 70.9718 92.3628 71.1214 92.5725C71.2689 92.7832 71.4107 92.9332 71.5464 93.0225C71.6836 93.1139 71.8232 93.1525 71.9657 93.1382C72.1061 93.1253 72.2564 93.0764 72.4171 92.9914C72.6254 92.8814 72.8107 92.7668 72.9729 92.6482C73.1314 92.5282 73.255 92.4282 73.3432 92.3482L72.8411 91.3975L71.9004 91.8946L71.3171 90.7907C71.4264 90.7136 71.5571 90.6278 71.71 90.5332C71.8629 90.4386 72.0246 90.3407 72.1961 90.2393C72.365 90.1389 72.5225 90.0503 72.6679 89.9736C72.8546 89.875 73.0207 89.79 73.1661 89.7186C73.3104 89.645 73.4443 89.5828 73.5671 89.5318L75.4004 93.0025L74.3518 93.5564L73.9532 93.2507C73.8582 93.4175 73.6986 93.6253 73.4746 93.8739C73.2529 94.1214 72.9725 94.3346 72.6339 94.5136Z" fill="black"/>
<path d="M79.3418 90.2725C79.0396 90.4954 78.7404 90.6793 78.4446 90.8243C78.1454 90.9686 77.8471 91.0482 77.55 91.0629C77.2529 91.0775 76.9614 91.0071 76.6761 90.8518C76.3907 90.6964 76.1107 90.4329 75.8371 90.0618L73.1336 86.3961L74.4018 85.4604L77.1011 89.1204C77.2207 89.2825 77.3521 89.3864 77.4961 89.4329C77.6414 89.4811 77.7982 89.4786 77.9661 89.4246C78.1354 89.3729 78.315 89.2771 78.5046 89.1375C78.6904 89.0004 78.8329 88.8589 78.9321 88.7121C79.035 88.5661 79.0839 88.4171 79.0786 88.2657C79.0768 88.1146 79.0161 87.9579 78.8968 87.7957L76.1975 84.1361L77.4661 83.2007L80.1696 86.8664C80.4436 87.2379 80.6136 87.5821 80.6796 87.8993C80.7439 88.2179 80.7239 88.5179 80.62 88.7986C80.5182 89.0782 80.3561 89.3379 80.1336 89.5782C79.9096 89.8164 79.6457 90.0479 79.3418 90.2725Z" fill="black"/>
<path d="M83.6504 86.5547L82.5086 87.7043L79.1622 81.48L80.5479 80.0847L86.795 83.3882L85.6457 84.5457L84.5293 83.9247L83.0164 85.4479L83.6504 86.5547ZM80.8061 81.7425L82.2725 84.1954L83.2718 83.1893L80.8061 81.7425Z" fill="black"/>
<path d="M88.8304 80.7832L87.8871 82.0461L82.4707 78.0004L84.1718 75.7229C84.3421 75.4946 84.5279 75.3057 84.7289 75.1554C84.9264 75.0057 85.1457 74.9089 85.3864 74.8654C85.6275 74.8218 85.8932 74.8454 86.1836 74.9368C86.4718 75.0264 86.7911 75.2021 87.1411 75.4636C87.3789 75.6414 87.5664 75.815 87.7036 75.9846C87.8386 76.1529 87.935 76.3168 87.9932 76.4768C88.0529 76.6346 88.0839 76.7882 88.0861 76.9368C88.0882 77.0857 88.0789 77.2318 88.0575 77.375L90.9125 77.9954L89.9539 79.2786L87.4218 78.6511C87.385 78.7004 87.3429 78.7546 87.2954 78.8143C87.2457 78.8721 87.2 78.93 87.1571 78.9868C87.1132 79.0457 87.0682 79.1057 87.0229 79.1668C86.9771 79.2279 86.9346 79.2846 86.895 79.3379L88.8304 80.7832ZM84.5464 77.5839L85.8979 78.5932L86.4861 77.8054C86.5521 77.7168 86.5986 77.6304 86.6246 77.5457C86.6543 77.4607 86.66 77.3732 86.6418 77.2829C86.62 77.1932 86.5754 77.1032 86.5082 77.0129C86.4375 76.9232 86.3371 76.83 86.2071 76.7329C86.0754 76.6343 85.9575 76.5646 85.8532 76.5239C85.7496 76.4864 85.6575 76.4743 85.5768 76.4875C85.4929 76.5014 85.4143 76.5346 85.3414 76.5875C85.27 76.6382 85.2011 76.7079 85.135 76.7961L84.5464 77.5839Z" fill="black"/>
<path d="M93.2279 73.8529L91.8314 76.4214L85.8922 73.1922L87.2886 70.6239C87.5172 70.2032 87.7804 69.8993 88.0779 69.7118C88.3732 69.5232 88.6986 69.4207 89.0539 69.4043C89.4061 69.3889 89.7811 69.4489 90.1797 69.5847C90.5772 69.7168 90.9893 69.8993 91.4164 70.1311C92.0979 70.5014 92.6143 70.8829 92.9657 71.2754C93.3182 71.6654 93.5139 72.0736 93.5529 72.5C93.5943 72.9275 93.4857 73.3786 93.2279 73.8529ZM87.8872 72.4832L91.3454 74.3632L91.915 73.3154C92.0336 73.0975 92.0657 72.8914 92.0122 72.6975C91.9572 72.5057 91.8168 72.3118 91.5904 72.1161C91.3643 71.9204 91.0572 71.7171 90.6689 71.5061C90.3 71.3057 89.9904 71.1636 89.7396 71.0804C89.4879 70.9936 89.2822 70.9557 89.1222 70.9668C88.9604 70.9764 88.8282 71.0222 88.7254 71.1032C88.6214 71.1864 88.5318 71.2972 88.4568 71.435L87.8872 72.4832Z" fill="black"/>
<path d="M95.4943 68.8175L94.9521 70.3443L89.2704 66.1425L89.9282 64.2893L96.9879 64.6121L96.4418 66.1493L95.1671 66.0639L94.4486 68.0868L95.4943 68.8175ZM90.8689 65.6786L93.2418 67.2714L93.7161 65.9354L90.8689 65.6786Z" fill="black"/>
<path d="M0.997864 50.9736C0.997864 49.5343 2.16465 48.3678 3.60358 48.3675C5.04286 48.3675 6.20929 49.5343 6.20929 50.9736C6.20929 52.4128 5.04251 53.5793 3.60358 53.5793C2.16429 53.5793 0.997864 52.4125 0.997864 50.9736Z" fill="black"/>
<path d="M93.7907 50.9736C93.7907 49.5343 94.9575 48.3678 96.3964 48.3675C97.8357 48.3675 99.0021 49.5343 99.0021 50.9736C99.0021 52.4128 97.8353 53.5793 96.3964 53.5793C94.9571 53.5793 93.7907 52.4125 93.7907 50.9736Z" fill="black"/>
</g>
</g>
</g>
</g>
</g>
<defs>
<clipPath id="clip0_21_1651">
<rect width="100" height="100" fill="white"/>
</clipPath>
<clipPath id="clip1_21_1651">
<rect width="100" height="100" fill="white"/>
</clipPath>
<clipPath id="clip2_21_1651">
<rect width="100" height="100" fill="white"/>
</clipPath>
<clipPath id="clip3_21_1651">
<rect width="100" height="100" fill="white"/>
</clipPath>
<clipPath id="clip4_21_1651">
<rect width="100" height="100" fill="white"/>
</clipPath>
<clipPath id="clip5_21_1651">
<rect width="37.552" height="47.1405" fill="white" transform="translate(31.224 26.4298)"/>
</clipPath>
<clipPath id="clip6_21_1651">
<rect width="37.552" height="47.1405" fill="white" transform="translate(31.224 26.4298)"/>
</clipPath>
</defs>
</svg>
