<svg width="38" height="48" viewBox="0 0 38 48" fill="none" xmlns="http://www.w3.org/2000/svg">
<path d="M37.4902 46.5971C37.4347 46.7595 37.3285 46.8999 37.1874 46.9976C37.0462 47.0953 36.8775 47.1453 36.7059 47.1402H34.9939L36.0574 41.8346C36.1847 42.0862 36.2993 42.344 36.4006 42.6071L37.513 46.0793C37.5721 46.2484 37.564 46.4338 37.4902 46.5971ZM0.0626868 46.5996C-0.0114036 46.4362 -0.0201549 46.2506 0.0382289 46.081L1.13797 42.6468C1.24283 42.3707 1.3619 42.1001 1.49471 41.8363L2.5582 47.1402H0.846168C0.693748 47.1416 0.543885 47.101 0.412983 47.0229C0.282081 46.9448 0.175189 46.8322 0.104011 46.6974C0.0881929 46.6657 0.0743907 46.6331 0.0626868 46.5996ZM11.5889 42.3668C11.785 42.6002 12.0414 42.7753 12.3302 42.8728L14.7684 47.1402H12.6903L11.5889 42.3668ZM14.1544 42.6653L16.3396 42.0438C17.0124 42.6374 17.8788 42.9649 18.776 42.9649C19.6733 42.9649 20.5397 42.6374 21.2125 42.0438L23.3977 42.6653L20.8406 47.1402H16.7115L14.1544 42.6653ZM25.2219 42.8728C25.3919 42.8146 25.5516 42.7298 25.695 42.6215C25.7933 42.5465 25.8832 42.4611 25.9632 42.3668L24.8617 47.1402H22.7837L25.2219 42.8728ZM22.4615 31.3238C21.4194 32.1695 20.1181 32.6311 18.776 32.6311C17.4339 32.6311 16.1327 32.1695 15.0906 31.3238C14.4833 30.8262 13.9436 30.3539 13.4291 29.8732C13.4376 29.9576 13.4544 30.0419 13.4629 30.1178C13.5531 30.8623 13.601 31.6112 13.6062 32.3611L18.776 36.7972L23.9459 32.3611C23.9511 31.6112 23.999 30.8623 24.0892 30.1178C24.0977 30.0335 24.1145 29.9576 24.123 29.8732C23.6085 30.3539 23.0688 30.8262 22.4615 31.3238ZM4.7172 38.3743C3.38469 39.3442 3.18228 39.5128 3.11481 39.5803C3.01361 39.6815 2.92084 39.7996 2.82807 39.9008L4.27865 47.1368H6.74127L4.7172 38.3743ZM15.4616 39.4791L12.8725 37.9611V41.2755L15.4616 40.5418C15.4249 40.367 15.4051 40.189 15.4026 40.0104C15.4056 39.8319 15.4254 39.654 15.4616 39.4791ZM15.4616 39.4791L12.8725 37.9611V41.2755L15.4616 40.5418C15.4249 40.367 15.4051 40.189 15.4026 40.0104C15.4056 39.8319 15.4254 39.654 15.4616 39.4791ZM8.67257 37.084C7.85204 37.1365 7.04294 37.304 6.26899 37.5815L8.47016 47.1368H10.9581L8.68101 37.2526C8.66979 37.1972 8.66694 37.1403 8.67257 37.084ZM15.4616 39.4791L12.8725 37.9611V41.2755L15.4616 40.5418C15.4249 40.367 15.4051 40.189 15.4026 40.0104C15.4056 39.8319 15.4254 39.654 15.4616 39.4791ZM15.4616 39.4791L12.8725 37.9611V41.2755L15.4616 40.5418C15.4249 40.367 15.4051 40.189 15.4026 40.0104C15.4056 39.8319 15.4254 39.654 15.4616 39.4791ZM18.776 38.7454C17.8652 38.7454 17.0893 39.3273 17.0893 40.0104C17.0893 40.702 17.8652 41.2755 18.776 41.2755C19.6869 41.2755 20.4628 40.702 20.4628 40.0104C20.4628 39.3273 19.6869 38.7454 18.776 38.7454ZM28.8795 37.084C28.8852 37.1403 28.8823 37.1972 28.8711 37.2526L26.594 47.1368H29.0819L31.2831 37.5815C30.5092 37.304 29.7001 37.1365 28.8795 37.084ZM34.4373 39.5803C34.3698 39.5128 34.1674 39.3442 32.8349 38.3743L30.8108 47.1368H33.2734L34.724 39.9008C34.6313 39.7996 34.5385 39.6815 34.4373 39.5803ZM18.776 38.7454C17.8652 38.7454 17.0893 39.3273 17.0893 40.0104C17.0893 40.702 17.8652 41.2755 18.776 41.2755C19.6869 41.2755 20.4628 40.702 20.4628 40.0104C20.4628 39.3273 19.6869 38.7454 18.776 38.7454ZM18.776 38.7454C17.8652 38.7454 17.0893 39.3273 17.0893 40.0104C17.0893 40.702 17.8652 41.2755 18.776 41.2755C19.6869 41.2755 20.4628 40.702 20.4628 40.0104C20.4628 39.3273 19.6869 38.7454 18.776 38.7454ZM22.0905 39.4791C22.1267 39.654 22.1465 39.8319 22.1495 40.0104C22.147 40.189 22.1272 40.367 22.0905 40.5418L24.6796 41.2755V37.9611L22.0905 39.4791ZM18.776 38.7454C17.8652 38.7454 17.0893 39.3273 17.0893 40.0104C17.0893 40.702 17.8652 41.2755 18.776 41.2755C19.6869 41.2755 20.4628 40.702 20.4628 40.0104C20.4628 39.3273 19.6869 38.7454 18.776 38.7454ZM18.776 38.7454C17.8652 38.7454 17.0893 39.3273 17.0893 40.0104C17.0893 40.702 17.8652 41.2755 18.776 41.2755C19.6869 41.2755 20.4628 40.702 20.4628 40.0104C20.4628 39.3273 19.6869 38.7454 18.776 38.7454ZM15.4616 39.4791L12.8725 37.9611V41.2755L15.4616 40.5418C15.4249 40.367 15.4051 40.189 15.4026 40.0104C15.4056 39.8319 15.4254 39.654 15.4616 39.4791ZM24.6374 33.9973L20.5387 37.5056C20.7965 37.645 21.0348 37.818 21.2471 38.0201L24.0977 36.3502C24.1771 36.2993 24.2661 36.2649 24.3591 36.249C24.6028 36.2021 24.8539 36.2095 25.0944 36.2708C25.335 36.332 25.559 36.4455 25.7507 36.6032C26.0423 36.8413 26.2445 37.1714 26.3241 37.5394L26.9988 36.3587L24.6374 33.9973ZM28.7362 16.4047C28.6796 16.4293 28.6201 16.4464 28.559 16.4553C28.5144 16.4795 28.472 16.5077 28.4325 16.5397C28.0675 18.1378 27.906 19.7757 27.9518 21.4143C28.0611 21.5592 28.1855 21.6921 28.3229 21.8107C28.5253 21.4396 28.8964 20.2589 28.8964 17.6192C28.9203 17.2079 28.8659 16.7958 28.7362 16.4047ZM28.1542 0.110979C27.4964 -0.285401 26.1555 0.448324 24.7302 1.23265C22.9844 2.19408 21.0025 3.28202 18.776 3.28202C9.06052 3.28202 7.81234 6.6639 7.81234 9.60723C7.80855 9.99124 7.83676 10.3749 7.89668 10.7542C8.05922 11.9753 8.47889 13.1481 9.12799 14.1951L12.9653 9.29519C13.1419 9.0451 13.3675 8.83356 13.6285 8.67344C13.8894 8.51331 14.1802 8.40796 14.4831 8.36378C14.7861 8.3196 15.0949 8.33752 15.3907 8.41645C15.6865 8.49538 15.9631 8.63367 16.2038 8.82291C16.9401 9.38822 17.8421 9.69535 18.7704 9.69687C19.6987 9.6984 20.6017 9.39423 21.3399 8.83134C21.5802 8.64031 21.857 8.50033 22.1534 8.41997C22.4497 8.3396 22.7593 8.32055 23.0632 8.36397C23.3672 8.40739 23.6591 8.51237 23.921 8.67249C24.183 8.83261 24.4096 9.0445 24.5868 9.29519L28.2048 13.9168L28.5928 13.9252C29.3423 12.6094 29.7375 11.1216 29.7398 9.60723C29.7398 2.53143 28.8795 0.53266 28.1542 0.110979ZM9.11955 16.5481C9.06955 16.5068 9.01592 16.4701 8.95931 16.4385C8.91085 16.4303 8.86296 16.4191 8.81594 16.4047C8.68525 16.7955 8.63085 17.2078 8.6557 17.6192C8.6557 20.2589 9.02678 21.4396 9.22919 21.8107C9.36657 21.6921 9.49096 21.5592 9.60027 21.4143C9.64608 19.7785 9.48455 18.1434 9.11955 16.5481ZM23.2627 10.341C23.2186 10.2685 23.1599 10.206 23.0904 10.1573C23.0209 10.1087 22.942 10.0749 22.8588 10.0583C22.7756 10.0417 22.6898 10.0425 22.6069 10.0606C22.524 10.0788 22.4458 10.1139 22.3772 10.1639C21.3454 10.9549 20.0818 11.3843 18.7817 11.3858C17.4815 11.3873 16.217 10.9609 15.1833 10.1723C15.115 10.1207 15.0366 10.084 14.9532 10.0644C14.8698 10.0449 14.7832 10.043 14.699 10.0589C14.6149 10.0748 14.535 10.1081 14.4644 10.1567C14.3939 10.2052 14.3342 10.268 14.2894 10.341L10.528 15.1481C10.5364 15.1819 10.5448 15.224 10.5533 15.2662C10.5617 15.3063 10.573 15.3457 10.587 15.3843V15.4096C11.2457 17.8535 11.4571 20.3963 11.2111 22.9155C11.1942 23.0842 11.1858 23.2697 11.1858 23.4552C11.1858 25.0914 12.9484 27.419 16.1532 30.0082C16.894 30.6108 17.8195 30.9406 18.7746 30.9421C19.7296 30.9436 20.6561 30.6169 21.3989 30.0166C24.6037 27.419 26.3663 25.0914 26.3663 23.4552C26.3663 23.2697 26.3579 23.0842 26.341 22.8986C26.1061 20.4609 26.2973 18.001 26.9061 15.6288C26.9145 15.6035 26.9229 15.5529 26.9398 15.5023L26.982 15.3505C26.9988 15.2831 27.0073 15.2156 27.0241 15.1397L23.2627 10.341ZM17.9327 22.6793H19.6194C19.8431 22.6793 20.0576 22.7682 20.2158 22.9264C20.3739 23.0845 20.4628 23.299 20.4628 23.5227C20.4628 23.7464 20.3739 23.9609 20.2158 24.1191C20.0576 24.2772 19.8431 24.3661 19.6194 24.3661H17.9327C17.709 24.3661 17.4945 24.2772 17.3363 24.1191C17.1782 23.9609 17.0893 23.7464 17.0893 23.5227C17.0893 23.299 17.1782 23.0845 17.3363 22.9264C17.4945 22.7682 17.709 22.6793 17.9327 22.6793ZM15.4026 18.4625V19.3059C15.4026 19.5296 15.3137 19.7441 15.1556 19.9022C14.9974 20.0604 14.7829 20.1493 14.5592 20.1493C14.3356 20.1493 14.121 20.0604 13.9629 19.9022C13.8047 19.7441 13.7159 19.5296 13.7159 19.3059V18.4625H12.8725C12.6488 18.4625 12.4343 18.3737 12.2762 18.2155C12.118 18.0574 12.0292 17.8428 12.0292 17.6192C12.0292 17.3955 12.118 17.181 12.2762 17.0228C12.4343 16.8647 12.6488 16.7758 12.8725 16.7758H16.246C16.4696 16.7758 16.6841 16.8647 16.8423 17.0228C17.0005 17.181 17.0893 17.3955 17.0893 17.6192C17.0893 17.8428 17.0005 18.0574 16.8423 18.2155C16.6841 18.3737 16.4696 18.4625 16.246 18.4625H15.4026ZM20.4628 27.7395H17.0893C16.8657 27.7395 16.6511 27.6507 16.493 27.4925C16.3348 27.3343 16.246 27.1198 16.246 26.8962C16.246 26.6725 16.3348 26.458 16.493 26.2998C16.6511 26.1416 16.8657 26.0528 17.0893 26.0528H20.4628C20.6864 26.0528 20.901 26.1416 21.0591 26.2998C21.2173 26.458 21.3061 26.6725 21.3061 26.8962C21.3061 27.1198 21.2173 27.3343 21.0591 27.4925C20.901 27.6507 20.6864 27.7395 20.4628 27.7395ZM24.6796 18.4625H23.8362V19.3059C23.8362 19.5296 23.7474 19.7441 23.5892 19.9022C23.431 20.0604 23.2165 20.1493 22.9929 20.1493C22.7692 20.1493 22.5547 20.0604 22.3965 19.9022C22.2383 19.7441 22.1495 19.5296 22.1495 19.3059V18.4625H21.3061C21.0825 18.4625 20.8679 18.3737 20.7098 18.2155C20.5516 18.0574 20.4628 17.8428 20.4628 17.6192C20.4628 17.3955 20.5516 17.181 20.7098 17.0228C20.8679 16.8647 21.0825 16.7758 21.3061 16.7758H24.6796C24.9033 16.7758 25.1178 16.8647 25.2759 17.0228C25.4341 17.181 25.5229 17.3955 25.5229 17.6192C25.5229 17.8428 25.4341 18.0574 25.2759 18.2155C25.1178 18.3737 24.9033 18.4625 24.6796 18.4625ZM12.9147 33.9973L10.5533 36.3587L11.228 37.5394C11.3228 37.1107 11.5813 36.7359 11.9483 36.4949C12.3153 36.2539 12.7619 36.1657 13.193 36.249C13.286 36.2649 13.3749 36.2993 13.4544 36.3502L16.305 38.0201C16.5173 37.818 16.7555 37.645 17.0134 37.5056L12.9147 33.9973Z" fill="black"/>
</svg>
